<svg xmlns="http://www.w3.org/2000/svg" xmlns:xlink="http://www.w3.org/1999/xlink" width="120" height="120" viewBox="0 0 120 120">
  <defs>
    <linearGradient id="linear-gradient" x1="0.5" x2="0.5" y2="1" gradientUnits="objectBoundingBox">
      <stop offset="0" stop-color="#f65e5b"/>
      <stop offset="1" stop-color="#7b2f2e"/>
    </linearGradient>
  </defs>
  <g id="Group_38827" data-name="Group 38827" transform="translate(-1310 -1060)">
    <circle id="Ellipse_5277" data-name="Ellipse 5277" cx="60" cy="60" r="60" transform="translate(1310 1060)" fill="#ffe4e3"/>
    <g id="noun_brand_3852801" transform="translate(1332.748 1082.748)">
      <circle id="Ellipse_2584" data-name="Ellipse 2584" cx="6" cy="6" r="6" transform="translate(4.252 53.252)" fill="url(#linear-gradient)"/>
      <rect id="Rectangle_11206" data-name="Rectangle 11206" width="11" height="10" transform="translate(58.252 55.252)" fill="url(#linear-gradient)"/>
      <path id="Path_47498" data-name="Path 47498" d="M50.68,18.033l4.336-2.4,4.336,2.4-.828-5.078,3.508-3.595-4.848-.741L55.016,4,52.848,8.619,48,9.361l3.508,3.595Z" transform="translate(7.962 0.508)" fill="url(#linear-gradient)"/>
      <path id="Path_47499" data-name="Path 47499" d="M34.976,61.864A33.728,33.728,0,0,1,15.759,55.9l-1.327,1.925A36.281,36.281,0,0,0,53.1,59.352l-1.172-2.024a33.9,33.9,0,0,1-16.956,4.536Z" transform="translate(2.276 9.3)" fill="url(#linear-gradient)"/>
      <path id="Path_47500" data-name="Path 47500" d="M58.1,19.493a34.006,34.006,0,0,1,.569,28.364l2.144.936A36.343,36.343,0,0,0,60.2,18.472Z" transform="translate(9.674 2.96)" fill="url(#linear-gradient)"/>
      <path id="Path_47501" data-name="Path 47501" d="M34.9,1A36.094,36.094,0,0,0,14.858,7.042l1.3,1.948A33.942,33.942,0,0,1,51.833,7.86L53,5.834A36.249,36.249,0,0,0,34.9,1Z" transform="translate(2.348 0)" fill="url(#linear-gradient)"/>
      <path id="Path_47502" data-name="Path 47502" d="M3.339,34.626A33.886,33.886,0,0,1,7.875,17.671L5.851,16.5A36.325,36.325,0,0,0,4.017,49.127l2.144-.936A33.669,33.669,0,0,1,3.339,34.626Z" transform="translate(0 2.626)" fill="url(#linear-gradient)"/>
      <path id="Path_47503" data-name="Path 47503" d="M3,15.694H17.033L10.016,4Z" transform="translate(0.339 0.508)" fill="url(#linear-gradient)"/>
      <path id="Path_47504" data-name="Path 47504" d="M52.99,34.192l-.827-17.365L34.8,16,11.645,39.153,29.836,57.345ZM41.413,22.615a3.508,3.508,0,1,1,0,4.961,3.508,3.508,0,0,1,0-4.961Z" transform="translate(1.803 2.541)" fill="url(#linear-gradient)"/>
    </g>
  </g>
</svg>
