<svg xmlns="http://www.w3.org/2000/svg" width="65.044" height="65.044" viewBox="0 0 65.044 65.044">
  <g id="Group_36997" data-name="Group 36997" transform="translate(-96.979 -607)">
    <path id="Path_483" data-name="Path 483" d="M32.522,0A32.522,32.522,0,1,1,0,32.522,32.522,32.522,0,0,1,32.522,0Z" transform="translate(96.979 607)" fill="#deb6e1"/>
    <g id="Layer_14" data-name="Layer 14" transform="translate(111.256 618.061)">
      <rect id="Rectangle_583" data-name="Rectangle 583" width="25.383" height="22.21" rx="4" transform="translate(1.772 17.938)" fill="#f7d881"/>
      <path id="Path_524" data-name="Path 524" d="M53.117,36.7l-2.223-.5A9.106,9.106,0,0,1,45.059,32a9.106,9.106,0,0,1-5.836,4.2L37,36.7a18.8,18.8,0,0,0,7.521,15.043l.537.4.537-.4A18.8,18.8,0,0,0,53.117,36.7Z" transform="translate(-12.824 -11.182)" fill="#78b75b"/>
      <path id="Path_525" data-name="Path 525" d="M41.607,49.024c5.372-1.451,9.5-6.353,10.57-12.531L50.895,36.2A9.106,9.106,0,0,1,45.059,32a9.106,9.106,0,0,1-5.836,4.2L37,36.7a18.8,18.8,0,0,0,4.607,12.323Z" transform="translate(-12.824 -11.182)" fill="#96cc7f"/>
      <path id="Path_526" data-name="Path 526" d="M7.672,19.461h3.358V12.745a6.716,6.716,0,1,1,13.431,0v6.716h3.358a2.747,2.747,0,0,1,.672.094v-6.81a10.745,10.745,0,1,0-21.49,0v6.81A2.747,2.747,0,0,1,7.672,19.461Z" transform="translate(-2.971 -1.328)" fill="#c1c8d1"/>
      <path id="Path_527" data-name="Path 527" d="M2,36h8.059V48.088H2Z" transform="translate(-1.328 -12.495)" fill="#f5b95b"/>
      <path id="Path_528" data-name="Path 528" d="M23.029,43.085V37.343a1.343,1.343,0,1,0-2.686,0v5.742a2.686,2.686,0,1,0,2.686,0Z" transform="translate(-6.912 -12.495)" fill="#c1c8d1"/>
      <ellipse id="Ellipse_200" data-name="Ellipse 200" cx="3.966" cy="3.966" rx="3.966" ry="3.966" transform="translate(28.741 27.456)" fill="#ebf7fe"/>
      <path id="Path_529" data-name="Path 529" d="M23.378,42.387V37.015a2.015,2.015,0,1,0-4.029,0v5.372a3.358,3.358,0,0,0,1.216,5.937,3.606,3.606,0,0,0,.8.107,3.358,3.358,0,0,0,2.015-6.044Zm-.766,4.251a2.015,2.015,0,1,1-2.256-3.311.672.672,0,0,0,.336-.584V37.015a.672.672,0,1,1,1.343,0v5.742a.672.672,0,0,0,.336.584,2.015,2.015,0,0,1,.242,3.311Z" transform="translate(-6.589 -12.167)"/>
      <path id="Path_530" data-name="Path 530" d="M41.441,25.848l-2.223-.49a8.482,8.482,0,0,1-5.372-3.9.672.672,0,0,0-1.155,0,8.428,8.428,0,0,1-3.485,3.2V21.818a3.358,3.358,0,0,0-2.015-3.076V12.417a11.416,11.416,0,1,0-22.833,0v6.326a3.358,3.358,0,0,0-2.015,3.076v2.015H1.672A.672.672,0,0,0,1,24.5V36.593a.672.672,0,0,0,.672.672h.672v2.015A3.358,3.358,0,0,0,5.7,42.637H25.848a3.358,3.358,0,0,0,3.358-3.358v-.087A19.529,19.529,0,0,0,32.295,42.1l.537.4a.672.672,0,0,0,.806,0l.537-.4a19.576,19.576,0,0,0,7.79-15.58.672.672,0,0,0-.524-.672ZM5.7,12.417a10.073,10.073,0,1,1,20.147,0v6.044H23.161V12.417a7.387,7.387,0,1,0-14.774,0v6.044H5.7Zm16.117,6.044H9.73V12.417a6.044,6.044,0,1,1,12.088,0ZM9.059,25.176v2.686H2.343V25.176ZM2.343,35.921V33.235H9.059v2.686Zm6.716-4.029H2.343V29.205H9.059Zm18.8,7.387a2.015,2.015,0,0,1-2.015,2.015H5.7a2.015,2.015,0,0,1-2.015-2.015V37.264H9.73a.672.672,0,0,0,.672-.672V24.5a.672.672,0,0,0-.672-.672H3.686V21.818A2.015,2.015,0,0,1,5.7,19.8H25.848a2.015,2.015,0,0,1,2.015,2.015v3.358c-.2.06-.4.121-.611.168l-2.223.5a.672.672,0,0,0-.524.672,19.569,19.569,0,0,0,3.358,10.906Zm5.507,1.746-.134.1-.134-.1a18.233,18.233,0,0,1-7.253-13.968l1.686-.376a9.825,9.825,0,0,0,5.7-3.66,9.825,9.825,0,0,0,5.695,3.66l1.692.376A18.233,18.233,0,0,1,33.369,41.025Z" transform="translate(-1 -1)"/>
      <path id="Path_531" data-name="Path 531" d="M50.568,40.154l-1.2-.6-.457.907a4.761,4.761,0,1,0,1.054.846Zm-.6,4.4a3.391,3.391,0,1,1-1.659-2.881L46.5,45.3l-1.343-1.82-1.074.806L46.1,46.971a.672.672,0,0,0,.537.269h.06a.672.672,0,0,0,.537-.369l2.129-4.258A3.3,3.3,0,0,1,49.971,44.553Z" transform="translate(-14.378 -13.661)"/>
    </g>
  </g>
</svg>
