<svg width="307" height="279" viewBox="0 0 307 279" fill="none" xmlns="http://www.w3.org/2000/svg">
<path d="M30.4896 200.568L7.47877 172.406L2 177.822L30.4896 200.568Z" fill="#F9CA06" stroke="black" stroke-width="2"/>
<path d="M69.9366 231.98L89.4073 262.308L94.0432 256.475L69.9366 231.98Z" fill="#F9CA06" stroke="black" stroke-width="2"/>
<path d="M64.5461 252.161L67.1813 276.176L71.6556 273.9L64.5461 252.161Z" fill="#F9CA06" stroke="black"/>
<path d="M31.1912 219.826L4.88047 222.11L4.73322 227.763L31.1912 219.826Z" fill="#F9CA06" stroke="black"/>
<path d="M53.0645 232.119L9.163 271.578L20.4236 275.99L53.0645 232.119Z" fill="#F9CA06" stroke="black" stroke-width="2"/>
<path fill-rule="evenodd" clip-rule="evenodd" d="M219.765 223.329C190.747 223.329 161.729 223.329 132.711 167.777C103.694 112.224 74.6758 112.224 74.6758 112.224V209.441C74.6758 213.124 73.1472 216.657 70.4262 219.262C67.7053 221.866 64.0149 223.329 60.1669 223.329C56.3189 223.329 52.6285 221.866 49.9075 219.262C47.1866 216.657 45.658 213.124 45.658 209.441C45.658 126.112 16.6401 84.4481 16.6401 56.6718C16.6401 28.8956 45.658 1.11938 45.658 1.11938C45.658 1.11938 72.6083 14.702 131.348 106.586C157.384 147.299 183.413 157.215 202.601 157.215C220.846 157.215 232.917 148.25 232.917 148.25C232.917 148.25 279.027 166.798 293.666 177.325C309.568 188.762 306.818 199.49 306.818 211.615C306.818 222.031 248.783 223.329 219.765 223.329Z" fill="#313131"/>
<path d="M229.48 143.678C229.534 143.643 229.584 143.61 229.63 143.579C229.635 143.581 229.639 143.583 229.644 143.584C229.978 143.718 230.471 143.916 231.104 144.171C232.369 144.681 234.193 145.421 236.427 146.341C240.895 148.182 247.001 150.742 253.555 153.62C266.703 159.393 281.529 166.391 288.623 171.418C296.273 176.838 299.338 182.008 300.551 187.18C301.164 189.795 301.314 192.452 301.305 195.215C301.3 196.543 301.26 197.884 301.218 199.257L301.213 199.428C301.169 200.856 301.127 202.316 301.127 203.801C301.127 204.532 300.615 205.392 299.094 206.333C297.603 207.256 295.375 208.102 292.513 208.861C286.806 210.375 278.855 211.472 269.958 212.258C252.181 213.829 230.829 214.143 216.578 214.143C202.294 214.143 188.257 214.13 174.23 207.515C160.229 200.914 146.107 187.662 131.912 160.889C117.589 133.873 103.22 120.282 92.3509 113.448C86.9179 110.032 82.3702 108.312 79.1573 107.446C77.5515 107.014 76.2809 106.795 75.4017 106.684C74.9621 106.629 74.6205 106.601 74.3839 106.587C74.2656 106.579 74.1735 106.576 74.1085 106.574C74.0934 106.573 74.0797 106.573 74.0676 106.573C74.0536 106.572 74.0416 106.572 74.0316 106.572L74.0085 106.572L74.0009 106.572L73.9981 106.572C73.997 106.572 73.9959 106.572 73.9959 107.572V106.572H72.9959V107.572V200.697H46.4781C46.3615 160.73 39.2673 130.68 32.1785 107.282C30.3926 101.387 28.6072 95.9148 26.9362 90.8195C26.8165 90.4547 26.6975 90.0917 26.579 89.7307C25.0425 85.0471 23.6133 80.6908 22.376 76.6069C19.7064 67.7952 17.9633 60.3517 17.9633 53.7858C17.9633 40.6574 24.9418 27.4236 32.038 17.3853C35.5734 12.3841 39.1106 8.21411 41.7639 5.2948C43.0901 3.8357 44.1942 2.69044 44.965 1.91151C45.2308 1.64295 45.457 1.41798 45.6389 1.23876C45.7937 1.33169 45.9783 1.44538 46.1929 1.58214C47.0021 2.09779 48.2371 2.94113 49.9072 4.23527C53.2478 6.82383 58.3262 11.2138 65.2161 18.3882C78.9975 32.7384 100.011 58.2128 128.849 102.657L128.85 102.657C153.939 141.31 179.166 151.633 198.287 152.117C207.813 152.358 215.749 150.152 221.303 147.888C224.081 146.755 226.267 145.606 227.763 144.737C228.512 144.302 229.088 143.937 229.48 143.678Z" fill="#F9CA06" stroke="black" stroke-width="2"/>
<path fill-rule="evenodd" clip-rule="evenodd" d="M73.2521 200.466C73.295 202.257 72.9582 204.038 72.2613 205.704C71.5645 207.37 70.5217 208.888 69.1942 210.169C67.8666 211.45 66.2811 212.468 64.5307 213.163C62.7804 213.858 60.9004 214.216 59.0011 214.217C57.1019 214.217 55.2217 213.86 53.4709 213.165C51.7202 212.471 50.1341 211.454 48.8059 210.174C47.4777 208.893 46.4341 207.376 45.7364 205.71C45.0387 204.044 44.7009 202.264 44.7429 200.473C44.8252 196.96 46.3628 193.616 49.0263 191.159C51.6898 188.701 55.2677 187.325 58.994 187.324C62.7203 187.323 66.2989 188.698 68.9637 191.154C71.6285 193.61 73.1678 196.953 73.2521 200.466Z" fill="#181818"/>
</svg>
