<svg width="166" height="281" viewBox="0 0 166 281" fill="none" xmlns="http://www.w3.org/2000/svg">
<path d="M110.338 168.518C127.164 162.132 142.649 151.74 155.796 138.011C159.858 134.071 162.891 128.899 164.556 123.076C166.221 117.253 166.451 111.008 165.221 105.041L143.41 3.67069C143.181 2.59966 142.643 1.65146 141.884 0.98396C141.125 0.316457 140.192 -0.0300779 139.239 0.0020487H97.5342C96.764 0.00475049 96.0095 0.254237 95.3544 0.722855C94.6992 1.19147 94.169 1.86092 93.8224 2.65699L81.311 31.62C80.9824 32.3244 80.8104 33.1123 80.8104 33.9129C80.8104 34.7134 80.9824 35.5013 81.311 36.2058L96.9086 67.7271L80.6437 94.6144L85.0644 68.9339C85.1903 68.2253 85.1769 67.493 85.0253 66.7911C84.8737 66.0893 84.5878 65.4358 84.1886 64.8791L64.4205 37.4126L66.7142 5.60156C66.7604 4.93594 66.6867 4.26647 66.4979 3.63548C66.3091 3.0045 66.0092 2.42572 65.6173 1.93575C65.2253 1.44577 64.7498 1.05525 64.2207 0.788879C63.6917 0.522508 63.1207 0.386081 62.5438 0.388221H26.761C25.8083 0.356095 24.8748 0.702629 24.116 1.37013C23.3572 2.03764 22.8188 2.98583 22.5905 4.05686L0.778827 105.427C-0.451049 111.394 -0.22068 117.639 1.44411 123.462C3.1089 129.286 6.14228 134.457 10.2041 138.397C23.3514 152.127 38.8363 162.519 55.6625 168.904C59.9028 170.368 63.6309 173.356 66.3075 177.434C68.984 181.513 70.4702 186.471 70.5511 191.592V231.851C70.5511 236.972 68.7935 241.883 65.6651 245.504C62.5366 249.125 58.2935 251.159 53.8691 251.159H37.1872C33.8689 251.159 30.6866 252.685 28.3402 255.401C25.9939 258.117 24.6757 261.8 24.6757 265.641V275.295C24.6757 276.575 25.1151 277.803 25.8972 278.708C26.6793 279.614 27.7401 280.122 28.8462 280.122H137.279C138.385 280.122 139.446 279.614 140.228 278.708C141.01 277.803 141.449 276.575 141.449 275.295V265.641C141.449 261.8 140.131 258.117 137.785 255.401C135.439 252.685 132.256 251.159 128.938 251.159H112.256C107.832 251.159 103.589 249.125 100.46 245.504C97.3316 241.883 95.574 236.972 95.574 231.851V191.592C95.5759 186.423 97.0113 181.392 99.6691 177.238C102.327 173.084 106.066 170.028 110.338 168.518V168.518Z" fill="black"/>
<path d="M143.41 3.81766C143.181 2.74663 142.643 1.79844 141.884 1.13093C141.125 0.463429 140.192 0.116895 139.239 0.149021H97.5342C96.764 0.151723 96.0095 0.401211 95.3544 0.869829C94.6992 1.33845 94.169 2.00789 93.8224 2.80396L81.311 31.7669C80.9824 32.4714 80.8104 33.2593 80.8104 34.0598C80.8104 34.8603 80.9824 35.6483 81.311 36.3527L96.9086 67.7293L80.6437 94.6166L85.0644 68.9361C85.1903 68.2274 85.1769 67.4951 85.0253 66.7933C84.8737 66.0914 84.5878 65.438 84.1886 64.8813L64.4205 37.4147L66.7142 5.60372C66.7604 4.93809 66.6867 4.26863 66.4979 3.63764C66.3091 3.00666 66.0092 2.42788 65.6173 1.9379C65.2253 1.44793 64.7498 1.05741 64.2207 0.791037C63.6917 0.524666 63.1207 0.388239 62.5438 0.390379H26.761C25.8083 0.358253 24.8748 0.704787 24.116 1.37229C23.3572 2.03979 22.8188 2.98799 22.5905 4.05902L0.778827 105.429C-0.451049 111.396 -0.22068 117.641 1.44411 123.464C3.1089 129.288 6.14228 134.459 10.2041 138.399C23.3514 152.129 38.8363 162.521 55.6625 168.907C59.9028 170.371 63.6309 173.358 66.3075 177.436C68.984 181.515 70.4702 186.473 70.5511 191.594V231.853C70.5511 236.974 68.7935 241.885 65.6651 245.506C62.5366 249.127 58.2935 251.161 53.8691 251.161H37.1872C33.8689 251.161 30.6866 252.687 28.3402 255.403C25.9939 258.119 24.6757 261.802 24.6757 265.643V275.297C24.6757 276.578 25.1151 277.805 25.8972 278.711C26.6793 279.616 27.7401 280.124 28.8462 280.124H137.279C138.385 280.124 139.446 279.616 140.228 278.711C141.01 277.805 141.449 276.578 141.449 275.297V265.643C141.449 261.802 140.131 258.119 137.785 255.403C135.439 252.687 132.256 251.161 128.938 251.161H112.256C107.832 251.161 103.589 249.127 100.46 245.506C97.3316 241.885 95.574 236.974 95.574 231.853V191.594C95.5759 186.425 97.0113 181.394 99.6691 177.24C102.327 173.086 106.066 170.03 110.338 168.52C127.164 162.135 142.649 151.743 155.796 138.013C159.858 134.073 162.891 128.902 164.556 123.078C166.221 117.255 166.451 111.01 165.221 105.043L143.41 3.81766ZM150.249 130.772C138.003 143.663 123.553 153.432 107.835 159.445C101.89 161.564 96.6848 165.826 92.9788 171.609C89.2728 177.392 87.2597 184.394 87.233 191.594V231.853C87.233 239.534 89.8694 246.901 94.5621 252.333C99.2548 257.764 105.619 260.816 112.256 260.816H128.938C130.044 260.816 131.105 261.324 131.887 262.23C132.669 263.135 133.108 264.363 133.108 265.643V270.47H33.0167V265.643C33.0167 264.363 33.4561 263.135 34.2382 262.23C35.0203 261.324 36.0811 260.816 37.1872 260.816H53.8691C60.5056 260.816 66.8703 257.764 71.563 252.333C76.2557 246.901 78.8921 239.534 78.8921 231.853V191.594C78.8654 184.394 76.8523 177.392 73.1463 171.609C69.4403 165.826 64.2352 161.564 58.2899 159.445C42.5832 153.475 28.1339 143.756 15.876 130.917C12.9631 128.14 10.7762 124.478 9.56077 120.343C8.3453 116.208 8.14928 111.762 8.99469 107.505L30.014 9.80335H58.0396L55.9544 38.3801C55.869 39.6393 56.2133 40.887 56.9136 41.8557L76.5149 69.0326L68.5493 115.035C68.3604 116.123 68.5008 117.252 68.9467 118.233C69.3926 119.215 70.1168 119.989 70.9977 120.425C71.8785 120.861 72.8623 120.933 73.7835 120.628C74.7047 120.324 75.5072 119.661 76.0561 118.752L105.25 70.4808C105.672 69.7082 105.897 68.8126 105.897 67.8982C105.897 66.9838 105.672 66.0882 105.25 65.3157L89.8605 33.9392L100.245 9.80335H136.111L156.964 107.36C157.828 111.6 157.658 116.033 156.473 120.167C155.287 124.301 153.132 127.973 150.249 130.772V130.772Z" fill="black"/>
</svg>
