<svg id="facebook" xmlns="http://www.w3.org/2000/svg" width="37.958" height="37.958" viewBox="0 0 37.958 37.958">
  <path id="Path_369" data-name="Path 369" d="M291.331,508.668q-.237.039-.476.071Q291.094,508.707,291.331,508.668Zm0,0" transform="translate(-269.292 -470.957)" fill="#5867e5"/>
  <path id="Path_370" data-name="Path 370" d="M299.566,507.793l-.227.04Zm0,0" transform="translate(-277.148 -470.147)" fill="#5867e5"/>
  <path id="Path_371" data-name="Path 371" d="M278.168,510.34q-.278.031-.558.055Q277.89,510.372,278.168,510.34Zm0,0" transform="translate(-257.029 -472.505)" fill="#5867e5"/>
  <path id="Path_372" data-name="Path 372" d="M286.713,509.738l-.268.033Zm0,0" transform="translate(-265.21 -471.948)" fill="#5867e5"/>
  <path id="Path_373" data-name="Path 373" d="M306.864,506.41l-.2.042Zm0,0" transform="translate(-283.929 -468.867)" fill="#5867e5"/>
  <path id="Path_374" data-name="Path 374" d="M324.646,502.113l-.162.045Zm0,0" transform="translate(-300.428 -464.888)" fill="#5867e5"/>
  <path id="Path_375" data-name="Path 375" d="M319.235,503.543l-.176.046Zm0,0" transform="translate(-295.405 -466.212)" fill="#5867e5"/>
  <path id="Path_376" data-name="Path 376" d="M312.254,505.254l-.187.042Zm0,0" transform="translate(-288.931 -467.797)" fill="#5867e5"/>
  <path id="Path_377" data-name="Path 377" d="M273.78,511.09l-.3.023Zm0,0" transform="translate(-253.205 -473.2)" fill="#5867e5"/>
  <path id="Path_378" data-name="Path 378" d="M37.958,18.979A18.979,18.979,0,1,0,18.979,37.958c.111,0,.222,0,.334,0V23.179H15.235V18.427h4.077v-3.5c0-4.055,2.476-6.263,6.093-6.263a33.565,33.565,0,0,1,3.656.187v4.238H26.567c-1.968,0-2.349.935-2.349,2.308v3.027h4.706l-.613,4.752H24.218V37.224a18.989,18.989,0,0,0,13.74-18.246Zm0,0" fill="#5867e5"/>
  <path id="Path_379" data-name="Path 379" d="M265.485,511.43q-.3.019-.595.03Q265.189,511.45,265.485,511.43Zm0,0" transform="translate(-245.253 -473.515)" fill="#5867e5"/>
  <path id="Path_380" data-name="Path 380" d="M260.819,511.836l-.315.008Zm0,0" transform="translate(-241.191 -473.891)" fill="#5867e5"/>
</svg>
