<svg id="instagram_1_" data-name="instagram (1)" xmlns="http://www.w3.org/2000/svg" width="38.345" height="38.345" viewBox="0 0 38.345 38.345">
  <path id="Path_381" data-name="Path 381" d="M214.339,210.67a3.67,3.67,0,1,1-3.67-3.67A3.67,3.67,0,0,1,214.339,210.67Zm0,0" transform="translate(-191.497 -191.497)" fill="#df7141"/>
  <path id="Path_382" data-name="Path 382" d="M153.093,138.021A3.646,3.646,0,0,0,151,135.932a6.092,6.092,0,0,0-2.044-.379c-1.161-.053-1.509-.064-4.449-.064s-3.288.011-4.449.064a6.1,6.1,0,0,0-2.044.379,3.647,3.647,0,0,0-2.09,2.089,6.093,6.093,0,0,0-.379,2.044c-.053,1.161-.064,1.509-.064,4.449s.011,3.288.064,4.449a6.09,6.09,0,0,0,.379,2.044,3.646,3.646,0,0,0,2.089,2.089,6.083,6.083,0,0,0,2.044.379c1.161.053,1.509.064,4.448.064s3.288-.011,4.449-.064A6.083,6.083,0,0,0,151,153.1a3.646,3.646,0,0,0,2.089-2.089,6.1,6.1,0,0,0,.379-2.044c.053-1.161.064-1.509.064-4.449s-.011-3.288-.064-4.449A6.084,6.084,0,0,0,153.093,138.021Zm-8.582,12.146a5.653,5.653,0,1,1,5.653-5.653A5.653,5.653,0,0,1,144.51,150.167Zm5.877-10.209a1.321,1.321,0,1,1,1.321-1.321A1.321,1.321,0,0,1,150.387,139.958Zm0,0" transform="translate(-125.338 -125.342)" fill="#df7141"/>
  <path id="Path_383" data-name="Path 383" d="M19.172,0A19.172,19.172,0,1,0,38.345,19.172,19.175,19.175,0,0,0,19.172,0ZM30.115,23.711a8.077,8.077,0,0,1-.512,2.672,5.629,5.629,0,0,1-3.22,3.22,8.083,8.083,0,0,1-2.672.512c-1.174.054-1.549.066-4.539.066s-3.365-.013-4.539-.066a8.083,8.083,0,0,1-2.672-.512,5.629,5.629,0,0,1-3.22-3.22,8.075,8.075,0,0,1-.512-2.672c-.054-1.174-.067-1.549-.067-4.539s.013-3.365.066-4.539a8.078,8.078,0,0,1,.511-2.672,5.633,5.633,0,0,1,3.22-3.22,8.085,8.085,0,0,1,2.672-.512c1.174-.054,1.549-.066,4.539-.066s3.365.013,4.539.067a8.086,8.086,0,0,1,2.672.511,5.631,5.631,0,0,1,3.22,3.22,8.076,8.076,0,0,1,.512,2.672c.054,1.174.066,1.549.066,4.539S30.169,22.537,30.115,23.711Zm0,0" transform="translate(0 0)" fill="#df7141"/>
</svg>
