<svg xmlns="http://www.w3.org/2000/svg" width="65.044" height="65.044" viewBox="0 0 65.044 65.044">
  <g id="Group_36996" data-name="Group 36996" transform="translate(-96.979 -501.14)">
    <path id="Path_482" data-name="Path 482" d="M32.522,0A32.522,32.522,0,1,1,0,32.522,32.522,32.522,0,0,1,32.522,0Z" transform="translate(96.979 501.14)" fill="#aba5d6"/>
    <g id="translate" transform="translate(111.256 515.418)">
      <g id="Translate_2_" transform="translate(15.541 8.583)">
        <g id="Group_489" data-name="Group 489">
          <path id="Path_513" data-name="Path 513" d="M222.769,147.942l3.689-8.064-5.5-16.49a1.054,1.054,0,0,1,1-1.389h16.258a3.169,3.169,0,0,1,3.166,3.166v21.106a3.169,3.169,0,0,1-3.166,3.166H223.729Z" transform="translate(-220.901 -121.999)" fill="#fff5f5"/>
        </g>
      </g>
      <path id="Path_514" data-name="Path 514" d="M385.568,146.272V125.166A3.169,3.169,0,0,0,382.4,122H376v27.437h6.4A3.169,3.169,0,0,0,385.568,146.272Z" transform="translate(-349.548 -113.417)" fill="#e3e7ea"/>
      <g id="Group_493" data-name="Group 493" transform="translate(14.506 25.468)">
        <g id="Group_492" data-name="Group 492">
          <g id="Group_491" data-name="Group 491">
            <g id="Group_490" data-name="Group 490">
              <path id="Path_515" data-name="Path 515" d="M210.054,372.552H210a1.058,1.058,0,0,1-.945-.721l-2.807-8.442a1.056,1.056,0,0,1,1-1.388h6.67a1.055,1.055,0,0,1,.959,1.494l-3.862,8.442A1.054,1.054,0,0,1,210.054,372.552Z" transform="translate(-206.191 -361.999)" fill="#acd1fc"/>
            </g>
          </g>
        </g>
      </g>
      <g id="Group_498" data-name="Group 498" transform="translate(14.506 25.468)">
        <g id="Group_497" data-name="Group 497">
          <g id="Group_496" data-name="Group 496">
            <g id="Group_495" data-name="Group 495">
              <g id="Group_494" data-name="Group 494">
                <path id="Path_516" data-name="Path 516" d="M214.876,363.493l-3.862,8.442a1.054,1.054,0,0,1-.959.616H210a1.058,1.058,0,0,1-.945-.721l-2.807-8.442a1.056,1.056,0,0,1,1-1.388h6.67Z" transform="translate(-206.191 -361.999)" fill="#324492"/>
              </g>
            </g>
          </g>
        </g>
      </g>
      <g id="Group_499" data-name="Group 499">
        <path id="Path_517" data-name="Path 517" d="M22.231,27.578H3.166A3.169,3.169,0,0,1,0,24.412V3.166A3.169,3.169,0,0,1,3.166,0H13.789a1.055,1.055,0,0,1,1,.722l8.441,25.467a1.054,1.054,0,0,1-1,1.389Z" fill="#4086f4"/>
      </g>
      <path id="Path_518" data-name="Path 518" d="M141.223.722a1.055,1.055,0,0,0-1-.722H136V27.578h12.663a1.054,1.054,0,0,0,1-1.389Z" transform="translate(-126.432)" fill="#4175df"/>
      <path id="Path_519" data-name="Path 519" d="M70.5,126.221H67.332a1.055,1.055,0,1,0,0,2.111h1.916a3.154,3.154,0,1,1-.734-3.294,1.056,1.056,0,0,0,1.494-1.492,5.277,5.277,0,1,0,1.545,3.731A1.055,1.055,0,0,0,70.5,126.221Z" transform="translate(-56.709 -113.417)" fill="#fff5f5"/>
      <g id="Group_503" data-name="Group 503" transform="translate(9.568 8.583)">
        <g id="Group_502" data-name="Group 502">
          <g id="Group_500" data-name="Group 500" transform="translate(0 4.221)">
            <path id="Path_520" data-name="Path 520" d="M140.221,182h-3.166a1.055,1.055,0,1,0,0,2.111h1.916A3.161,3.161,0,0,1,136,186.221v2.111a5.283,5.283,0,0,0,5.276-5.276A1.055,1.055,0,0,0,140.221,182Z" transform="translate(-136 -182)" fill="#e3e7ea"/>
          </g>
          <g id="Group_501" data-name="Group 501">
            <path id="Path_521" data-name="Path 521" d="M138.237,125.038a1.056,1.056,0,1,0,1.494-1.492A5.242,5.242,0,0,0,136,122v2.111A3.136,3.136,0,0,1,138.237,125.038Z" transform="translate(-136 -122)" fill="#e3e7ea"/>
          </g>
        </g>
      </g>
      <path id="Path_522" data-name="Path 522" d="M310.5,214.111h-3.166v-1.055a1.055,1.055,0,1,0-2.111,0v1.055h-3.166a1.055,1.055,0,0,0,0,2.111h6.115a13.094,13.094,0,0,1-1.884,3.311c-.179-.242-.356-.488-.526-.738a1.056,1.056,0,0,0-1.746,1.187c.3.436.607.853.917,1.256-.527.612-1.048,1.17-1.5,1.618a1.055,1.055,0,1,0,1.478,1.507c.164-.161.71-.716,1.383-1.473.747.854,1.31,1.422,1.354,1.466a1.055,1.055,0,0,0,1.492-1.492c-.011-.011-.659-.666-1.481-1.624a14.033,14.033,0,0,0,2.683-5.017h.163a1.055,1.055,0,1,0,0-2.111Z" transform="translate(-279.824 -197.085)" fill="#4254b6"/>
      <path id="Path_523" data-name="Path 523" d="M377.894,216.22a13.1,13.1,0,0,1-1.884,3.311l-.01-.014V222.9l.011-.012c.747.854,1.31,1.422,1.354,1.466a1.055,1.055,0,1,0,1.492-1.492c-.011-.011-.659-.666-1.481-1.624a14.032,14.032,0,0,0,2.683-5.017h.163a1.055,1.055,0,1,0,0-2.111h-3.166v-1.055A1.055,1.055,0,0,0,376,212v4.221h1.894Z" transform="translate(-349.548 -197.084)" fill="#324492"/>
    </g>
  </g>
</svg>
