<svg xmlns="http://www.w3.org/2000/svg" width="38.311" height="38.311" viewBox="0 0 38.311 38.311">
  <path id="linkedin" d="M19.155,0A19.155,19.155,0,1,0,38.311,19.155,19.157,19.157,0,0,0,19.155,0ZM13.589,28.958H8.924V14.922h4.665ZM11.257,13.006h-.03a2.431,2.431,0,1,1,.061-4.85,2.432,2.432,0,1,1-.031,4.85ZM30.411,28.958H25.746V21.449c0-1.887-.675-3.174-2.363-3.174a2.554,2.554,0,0,0-2.394,1.706,3.2,3.2,0,0,0-.153,1.138v7.838H16.171s.061-12.719,0-14.035h4.665v1.987a4.631,4.631,0,0,1,4.2-2.317c3.069,0,5.371,2.006,5.371,6.317Zm0,0" fill="#1a88db"/>
</svg>
