<svg xmlns="http://www.w3.org/2000/svg" xmlns:xlink="http://www.w3.org/1999/xlink" width="120" height="120" viewBox="0 0 120 120">
  <defs>
    <linearGradient id="linear-gradient" x1="0.5" x2="0.5" y2="1" gradientUnits="objectBoundingBox">
      <stop offset="0" stop-color="#2bc24f"/>
      <stop offset="1" stop-color="#166128"/>
    </linearGradient>
  </defs>
  <g id="Group_38826" data-name="Group 38826" transform="translate(-995 -1060)">
    <circle id="Ellipse_5276" data-name="Ellipse 5276" cx="60" cy="60" r="60" transform="translate(995 1060)" fill="#e9f9ec"/>
    <g id="noun_cart_3407475" transform="translate(1013.102 1080.081)">
      <g id="Group_2257" data-name="Group 2257" transform="translate(2.5 7.5)">
        <circle id="Ellipse_452" data-name="Ellipse 452" cx="6.284" cy="6.284" r="6.284" transform="translate(25.135 55.121)" fill="url(#linear-gradient)"/>
        <circle id="Ellipse_453" data-name="Ellipse 453" cx="6.284" cy="6.284" r="6.284" transform="translate(50.667 55.121)" fill="url(#linear-gradient)"/>
        <path id="Path_9807" data-name="Path 9807" d="M77.267,19.988a3.516,3.516,0,0,0-2.7-1.273H22.544l-1.67-8.431A3.477,3.477,0,0,0,17.533,7.5H5.92a3.42,3.42,0,1,0,0,6.84H14.67l8.193,41.281A3.477,3.477,0,0,0,26.2,58.405H67.4a3.4,3.4,0,0,0,3.341-2.7L77.9,22.851A2.9,2.9,0,0,0,77.267,19.988ZM58.1,35.18,46.883,46.395a3.19,3.19,0,0,1-2.227.954,3.141,3.141,0,0,1-2.227-.954l-5.806-5.806a3.15,3.15,0,0,1,4.454-4.454l3.579,3.579,8.988-8.988A3.15,3.15,0,0,1,58.1,35.18Z" transform="translate(-2.5 -7.5)" fill="url(#linear-gradient)"/>
      </g>
    </g>
  </g>
</svg>
