<svg width="200" height="303" viewBox="0 0 200 303" fill="none" xmlns="http://www.w3.org/2000/svg">
<path d="M48.4849 300V153.535H157.576L162.626 300L105.051 247.475L48.4849 300Z" fill="#FF7C21" stroke="black" stroke-width="2"/>
<path d="M198.5 97.9798C198.5 151.235 154.429 194.46 100 194.46C45.5709 194.46 1.5 151.235 1.5 97.9798C1.5 44.7242 45.5709 1.5 100 1.5C154.429 1.5 198.5 44.7242 198.5 97.9798Z" fill="#FDCC0C" stroke="black" stroke-width="3"/>
<path d="M78.8219 135.516C81.6838 138.457 86.6441 138.457 89.5092 135.516L151.712 71.573C154.699 68.5065 154.699 63.5159 151.712 60.4494C148.85 57.5087 143.889 57.5087 141.028 60.4494L86.596 116.398C85.3158 117.716 83.0153 117.716 81.7319 116.398L60.9957 95.0852C59.5647 93.6148 57.6685 92.8068 55.6536 92.8068C53.6386 92.8068 51.7392 93.6148 50.3115 95.0852C47.3244 98.1517 47.3244 103.142 50.3115 106.209L78.8219 135.516Z" fill="white"/>
<path d="M84.164 139.394C81.8058 139.394 79.4444 138.493 77.6894 136.688L49.179 107.381C47.4303 105.586 46.4646 103.192 46.4646 100.642C46.4646 98.0953 47.4303 95.7043 49.179 93.9095C52.6345 90.3528 58.6568 90.3462 62.1251 93.9095L82.8614 115.223C83.5191 115.898 84.8057 115.902 85.4602 115.223L139.895 59.2704C143.405 55.6641 149.331 55.6641 152.841 59.2704C154.59 61.0653 155.556 63.4595 155.556 66.0061C155.556 68.5527 154.59 70.9437 152.841 72.7386L90.6419 136.688C88.8869 138.493 86.5222 139.394 84.164 139.394ZM55.6536 94.4625C54.0654 94.4625 52.5703 95.1016 51.4441 96.2574C50.3051 97.4297 49.6731 98.9861 49.6731 100.645C49.6731 102.304 50.2987 103.864 51.4409 105.033L79.9513 134.344C82.194 136.645 86.134 136.649 88.3767 134.344L150.579 70.3973C151.715 69.2283 152.347 67.6686 152.347 66.0095C152.347 64.3504 151.721 62.7906 150.579 61.6216C148.336 59.3168 144.4 59.3135 142.157 61.6216L87.7254 117.574C85.8324 119.528 82.4956 119.528 80.5962 117.574L59.8631 96.2607C58.737 95.0983 57.2418 94.4625 55.6536 94.4625Z" fill="white"/>
<path d="M51.2804 102.301C50.3948 102.301 49.6761 101.559 49.6761 100.645C49.6761 98.9893 50.305 97.4295 51.4472 96.2572C52.5734 95.0982 54.0653 94.4624 55.6567 94.4624C56.5423 94.4624 57.261 95.2041 57.261 96.1181C57.261 97.0321 56.5423 97.7739 55.6567 97.7739C54.922 97.7739 54.2354 98.0687 53.7124 98.6018C53.183 99.1515 52.8878 99.8768 52.8878 100.645C52.8846 101.562 52.1659 102.301 51.2804 102.301ZM93.5069 115.627C93.0963 115.627 92.6824 115.464 92.3711 115.14C91.7487 114.491 91.7487 113.444 92.3776 112.795L137.521 66.3901C138.146 65.7477 139.163 65.7444 139.789 66.3934C140.411 67.0425 140.411 68.089 139.783 68.738L94.6395 115.143C94.3251 115.464 93.9176 115.627 93.5069 115.627Z" fill="white"/>
</svg>
