<svg id="profile" xmlns="http://www.w3.org/2000/svg" width="63.87" height="63.87" viewBox="0 0 63.87 63.87">
  <g id="Group_477" data-name="Group 477" transform="translate(0 0)">
    <g id="Group_463" data-name="Group 463" transform="translate(0 0.019)">
      <path id="Path_451" data-name="Path 451" d="M31.938,60.425l12.653-3.2A32.7,32.7,0,0,0,30.839.149a31.934,31.934,0,0,0-21.382,54.6Z" transform="translate(0 -0.149)" fill="#cbe2ff"/>
    </g>
    <g id="Group_464" data-name="Group 464" transform="translate(27.876)">
      <path id="Path_452" data-name="Path 452" d="M251.333,31.935a31.886,31.886,0,0,1-12.82,25.583l11.481-2.9A31.934,31.934,0,0,0,227.517,0a32.246,32.246,0,0,0-4.06.256,31.941,31.941,0,0,1,27.876,31.679Z" transform="translate(-223.457 0)" fill="#bed8fb"/>
    </g>
    <g id="Group_476" data-name="Group 476" transform="translate(8.736 9.141)">
      <g id="Group_475" data-name="Group 475">
        <g id="Group_474" data-name="Group 474">
          <path id="Path_453" data-name="Path 453" d="M179.807,76.231a2.953,2.953,0,0,0-2.953-2.953H166.677a6.8,6.8,0,0,0-6.8,6.8v7.546h23.977V80.182a2.953,2.953,0,0,0-2.953-2.953h-.1A1,1,0,0,1,179.807,76.231Z" transform="translate(-148.672 -73.278)" fill="#365e7d"/>
          <path id="Path_454" data-name="Path 454" d="M292.168,77.228h-.1a1,1,0,0,1-1-1,2.953,2.953,0,0,0-2.953-2.953H287V87.62h8.119V80.181A2.953,2.953,0,0,0,292.168,77.228Z" transform="translate(-259.936 -73.277)" fill="#2b4d66"/>
          <path id="Path_455" data-name="Path 455" d="M114.319,338.609a7.081,7.081,0,0,0-2.843-1.715l-8.719-2.76-9.524-.335-9.528.335-8.719,2.76a7.1,7.1,0,0,0-4.954,6.765v2.382a31.843,31.843,0,0,0,22.1,9.97,32.755,32.755,0,0,0,22.184-17.4Z" transform="translate(-70.032 -301.3)" fill="#4a80aa"/>
          <path id="Path_456" data-name="Path 456" d="M250.768,376.522V374.14a7.094,7.094,0,0,0-2.633-5.515,31.962,31.962,0,0,1-24.618,17.629,32.231,32.231,0,0,0,4,.257,34.149,34.149,0,0,0,3.845-.222A31.853,31.853,0,0,0,250.768,376.522Z" transform="translate(-204.37 -331.781)" fill="#407093"/>
          <path id="Path_457" data-name="Path 457" d="M211.064,340.025c1.932-3.836,6.964-14.728,5.529-21.532l-6.25-2.432-6.256,2.433c-1.479,7.014,3.913,18.372,5.7,21.867Q210.43,340.2,211.064,340.025Z" transform="translate(-187.143 -285.774)" fill="#e4f6ff"/>
          <path id="Path_458" data-name="Path 458" d="M231.879,413.841l-2.534-9.969H226.38l-2.528,9.942,3.126,3.48q1.19-.273,2.346-.631Z" transform="translate(-204.663 -362.631)" fill="#e28086"/>
          <path id="Path_459" data-name="Path 459" d="M244.979,499.409c.259.007.518.011.778.012.3,0,.6-.006.9-.014l1.61-1.779a31.674,31.674,0,0,1-3.906,1.1Z" transform="translate(-222.616 -444.691)" fill="#dd636e"/>
          <g id="Group_472" data-name="Group 472" transform="translate(11.208 8.002)">
            <g id="Group_471" data-name="Group 471" transform="translate(6.651 18.175)">
              <g id="Group_470" data-name="Group 470">
                <g id="Group_469" data-name="Group 469">
                  <g id="Group_468" data-name="Group 468">
                    <g id="Group_467" data-name="Group 467">
                      <g id="Group_466" data-name="Group 466">
                        <g id="Group_465" data-name="Group 465">
                          <path id="Path_460" data-name="Path 460" d="M223.87,288.739v-5.622H213.194v5.622c0,2.948,5.338,6.168,5.338,6.168S223.87,291.687,223.87,288.739Z" transform="translate(-213.194 -283.117)" fill="#ffddce"/>
                        </g>
                      </g>
                    </g>
                  </g>
                </g>
              </g>
            </g>
            <path id="Path_461" data-name="Path 461" d="M183.857,142.775h-2.041a2.055,2.055,0,0,1-2.055-2.055V139.6a2.169,2.169,0,0,0-2.85-2.06,16.067,16.067,0,0,1-10.082,0h0a2.169,2.169,0,0,0-2.85,2.06v1.125a2.055,2.055,0,0,1-2.055,2.055H159.88v3.36a1.555,1.555,0,0,0,1.555,1.555.511.511,0,0,1,.508.483,9.946,9.946,0,0,0,19.851,0,.511.511,0,0,1,.508-.483,1.555,1.555,0,0,0,1.555-1.555v-3.361Z" transform="translate(-159.88 -137.424)" fill="#ffddce"/>
            <path id="Path_462" data-name="Path 462" d="M258.312,142.778a2.055,2.055,0,0,1-2.055-2.055V139.6a2.169,2.169,0,0,0-2.85-2.06q-.582.192-1.173.338v11.1a9.943,9.943,0,0,1-4.956,8.453,10.051,10.051,0,0,0,1.086.061,9.947,9.947,0,0,0,9.926-9.313.511.511,0,0,1,.508-.483,1.555,1.555,0,0,0,1.555-1.555v-3.36h-2.041Z" transform="translate(-236.375 -137.427)" fill="#ffcbbe"/>
          </g>
          <g id="Group_473" data-name="Group 473" transform="translate(13.673 30.286)">
            <path id="Path_463" data-name="Path 463" d="M183.822,316.06l-4.186,3.4,4.39,5.428a1.454,1.454,0,0,0,1.947.074l3.3-2.758Z" transform="translate(-179.636 -316.06)" fill="#f4fbff"/>
            <path id="Path_464" data-name="Path 464" d="M262.124,316.06l-5.226,6.146,3.1,2.653a1.454,1.454,0,0,0,1.952-.056l4.359-5.341Z" transform="translate(-247.26 -316.06)" fill="#f4fbff"/>
          </g>
        </g>
        <path id="Path_465" data-name="Path 465" d="M165.126,316.06l-6.145,3.019a.931.931,0,0,0-.417,1.262l1.2,2.334a1.563,1.563,0,0,1-.285,1.823l-.749.748a1.559,1.559,0,0,0-.383,1.589c1.453,4.431,8.448,11.206,11.1,13.657q.267.007.535.01C168.064,336.767,161.261,322.58,165.126,316.06Z" transform="translate(-147.267 -285.774)" fill="#365e7d"/>
        <path id="Path_466" data-name="Path 466" d="M270.365,324.5a1.563,1.563,0,0,1-.285-1.823l1.2-2.334a.931.931,0,0,0-.417-1.262l-6.145-3.019c3.864,6.519-2.934,20.7-4.856,24.438q.271,0,.541-.014c2.653-2.457,9.636-9.224,11.088-13.65a1.559,1.559,0,0,0-.383-1.589Z" transform="translate(-236.186 -285.774)" fill="#365e7d"/>
        <path id="Path_467" data-name="Path 467" d="M234.089,365.327l-3.251,2.715,1.656,2.093h2.965l1.657-2.217Z" transform="translate(-210.778 -328.895)" fill="#dd636e"/>
      </g>
    </g>
  </g>
</svg>
