<svg width="286" height="301" viewBox="0 0 286 301" fill="none" xmlns="http://www.w3.org/2000/svg">
<path d="M0 280.922H221.436M221.436 280.922L279.25 243.298L214.891 239.954L221.436 280.922Z" stroke="black" stroke-width="4"/>
<rect x="1" y="16.0073" width="281" height="83.7576" fill="#FD7F26" stroke="black" stroke-width="2"/>
<rect x="2" y="17.0073" width="279" height="281.144" stroke="black" stroke-width="4"/>
<rect x="54.0985" y="0.5" width="9.7197" height="48.3106" rx="4.85985" fill="#FD7F26" stroke="black"/>
<rect x="210.606" y="0.5" width="9.7197" height="48.3106" rx="4.85985" fill="#FD7F26" stroke="black"/>
<path d="M141.013 153.727H142.671L141.898 155.194L109.809 216.047C108.941 217.775 108.631 218.767 108.631 220.082C108.631 223.27 111.795 228.197 118.291 228.197C120.999 228.197 122.507 227.609 123.79 226.313C125.177 224.912 126.355 222.645 128.178 218.996C128.179 218.995 128.179 218.994 128.18 218.994L160.018 154.295C160.019 154.293 160.019 154.291 160.02 154.29C160.148 154.024 160.273 153.764 160.397 153.509C161.029 152.199 161.601 151.016 162.042 149.886C162.567 148.542 162.872 147.36 162.872 146.255C162.872 144.808 162.274 142.715 160.92 140.997C159.593 139.314 157.559 138.007 154.625 138.007H108.145C104.83 138.007 102.751 139.024 101.49 140.422C100.21 141.84 99.6453 143.788 99.6453 145.869C99.6453 147.868 100.233 149.822 101.537 151.265C102.823 152.687 104.908 153.727 108.145 153.727H141.013Z" fill="#FDCC0C" stroke="black" stroke-width="2"/>
</svg>
