<svg xmlns="http://www.w3.org/2000/svg" width="65" height="65" viewBox="0 0 65 65">
  <g id="team_1_" data-name="team (1)" transform="translate(-0.022 -0.435)">
    <circle id="Ellipse_199" data-name="Ellipse 199" cx="32.5" cy="32.5" r="32.5" transform="translate(0.022 0.435)" fill="#84dbff"/>
    <path id="Path_484" data-name="Path 484" d="M383.962,171.6a1.836,1.836,0,0,1-.357,1.122,8,8,0,0,0-3.824-.918,7.211,7.211,0,0,0-3.824.918,2.241,2.241,0,0,1-.357-1.122c0-1.53,1.887-2.8,4.181-2.8S383.962,170.075,383.962,171.6Z" transform="translate(-327.577 -147.139)" fill="#f1543f"/>
    <path id="Path_485" data-name="Path 485" d="M368.822,200.3a19.39,19.39,0,0,1-.663,4.793H355.106c-.1-.459-.2-.867-.306-1.326a15.212,15.212,0,0,0,1.887-9.688,7.068,7.068,0,0,1,4.9-1.683C365.61,192.4,368.822,194.593,368.822,200.3Z" transform="translate(-309.429 -167.731)" fill="#ff7058"/>
    <path id="Path_486" data-name="Path 486" d="M380.931,321.369s.357,2.04-1.989,4.13L371.6,321.93a4.83,4.83,0,0,1,.408-1.53c1.122,2.04,2.652,3.416,4.334,3.416s3.212-1.428,4.334-3.416a5.371,5.371,0,0,1,.255.969Z" transform="translate(-324.087 -279.414)" fill="#f9b54c"/>
    <path id="Path_487" data-name="Path 487" d="M453.142,344.44a31.111,31.111,0,0,1-4.334,7.037l-.408-1.326c.255-.765,1.224-5.048.612-7.75Z" transform="translate(-391.097 -298.609)" fill="#4cdbc4"/>
    <g id="Group_482" data-name="Group 482" transform="translate(47.156 41.904)">
      <path id="Path_488" data-name="Path 488" d="M431.648,337.237l-1.632-5.1-.816-.408c2.346-2.091,1.989-4.13,1.989-4.13C433.483,329.385,431.954,336.217,431.648,337.237Z" transform="translate(-421.5 -327.6)" fill="#fff"/>
      <path id="Path_489" data-name="Path 489" d="M369.208,328c-.051.153-.051.357-.1.561l-.306-.153A1.553,1.553,0,0,1,369.208,328Z" transform="translate(-368.8 -327.949)" fill="#fff"/>
    </g>
    <path id="Path_490" data-name="Path 490" d="M364.728,237.468c-.459.918-1.224,1.326-1.734,1.02-1.173,3.008-3.059,5.354-5.252,5.354s-4.079-2.346-5.252-5.354c-.51.306-1.275-.153-1.734-1.02a3.821,3.821,0,0,1-.357-1.173,10.186,10.186,0,0,0,.765-1.326,1,1,0,0,1,.357.051h0l.051.051h0c0-.051-.2-1.938,4.793-3.977a9.126,9.126,0,0,0,3.569-2.295,4.326,4.326,0,0,0,2.5,3.314s1.53.357,1.377,2.906h0a.71.71,0,0,1,.714.051A1.8,1.8,0,0,1,364.728,237.468Z" transform="translate(-305.589 -199.491)" fill="#ffd05b"/>
    <path id="Path_491" data-name="Path 491" d="M328.142,373.91h0c-.1.714-.255,1.479-.357,2.295L326,370.8A6.526,6.526,0,0,1,328.142,373.91Z" transform="translate(-284.3 -323.389)" fill="#e6e9ee"/>
    <path id="Path_492" data-name="Path 492" d="M263.065,302.6s.612,3.365-4.283,6.272l-5.558-2.7a4.866,4.866,0,0,1-1.173-3.569H252a.385.385,0,0,1,.051-.2c1.53,1.887,3.416,3.11,5.507,3.11s3.977-1.224,5.507-3.11c0,.1.051.153,0,.2Z" transform="translate(-219.733 -263.708)" fill="#f9b54c"/>
    <path id="Path_493" data-name="Path 493" d="M353.877,333.328a32.446,32.446,0,0,1-11.371,8.923l-2.906-8.974c.153-.765.255-1.53.357-2.295.051.1,1.632-5.813.765-9.382l11.014,5.3Z" transform="translate(-296.166 -280.461)" fill="#2b3b4e"/>
    <g id="Group_483" data-name="Group 483" transform="translate(31.043 38.896)">
      <path id="Path_494" data-name="Path 494" d="M310.342,315.975a6.283,6.283,0,0,0-2.142-3.11l-.357-1.122-2.244-1.071c4.9-2.906,4.283-6.272,4.283-6.272C312.892,306.644,310.393,316.128,310.342,315.975Z" transform="translate(-297.544 -304.349)" fill="#fff"/>
      <path id="Path_495" data-name="Path 495" d="M244.848,307.569,242.4,306.4a3.916,3.916,0,0,1,1.275-2.4A4.866,4.866,0,0,0,244.848,307.569Z" transform="translate(-242.4 -304)" fill="#fff"/>
    </g>
    <path id="Path_496" data-name="Path 496" d="M251.65,214.406a31.645,31.645,0,0,0-1.02,3.62h0c-1.632,2.193-3.722,3.722-5.966,3.722-2.142,0-4.13-1.326-5.711-3.314a.05.05,0,0,1,.051.051c-1.53-1.887-1.887-4.538-1.836-6.833h0a19.442,19.442,0,0,0,1.224-4.589c2.04,1.53,6.731,1.632,6.731,1.632a3.158,3.158,0,0,1-2.753-2.295c.408,1.173,5.711,1.887,5.711,1.887C253.485,209.052,251.65,214.406,251.65,214.406Z" transform="translate(-206.788 -179.946)" fill="#ffd05b"/>
    <g id="Group_484" data-name="Group 484" transform="translate(28.902 18.056)">
      <path id="Path_497" data-name="Path 497" d="M228.863,254.433a15.665,15.665,0,0,1-3.263-3.926,22.118,22.118,0,0,0,1.428-2.906C226.977,249.895,227.334,252.546,228.863,254.433Z" transform="translate(-225.6 -233.95)" fill="#2b3b4e"/>
      <path id="Path_498" data-name="Path 498" d="M249.963,160.6a35.708,35.708,0,0,1,1.02-3.62s1.836-5.354-3.671-6.17c0,0-5.3-.714-5.711-1.887a3.182,3.182,0,0,0,2.753,2.295s-4.691-.1-6.731-1.632a14.664,14.664,0,0,0-1.224-8.159,5.747,5.747,0,0,1,4.334-.255s7.445-2.957,11.269,3.773C256.082,152.134,250.983,159.936,249.963,160.6Z" transform="translate(-235.023 -140.524)" fill="#2b3b4e"/>
    </g>
    <path id="Path_499" data-name="Path 499" d="M256.571,239.2h-9.892a1.48,1.48,0,0,0-1.479,1.479V241.9a1.48,1.48,0,0,0,1.479,1.479h2.855a1.61,1.61,0,0,0,.969-.357.4.4,0,0,0,.2-.2.947.947,0,0,1,1.836,0,.4.4,0,0,0,.2.2,1.346,1.346,0,0,0,.969.357h2.855a1.48,1.48,0,0,0,1.479-1.479v-1.224A1.48,1.48,0,0,0,256.571,239.2Zm-9.892,3.467a.784.784,0,0,1-.765-.765v-1.224a.784.784,0,0,1,.765-.765h2.906a.784.784,0,0,1,.765.765V241.9a.647.647,0,0,1-.051.306c-.051.051-.051.1-.1.153a.727.727,0,0,1-.612.306Zm4.946-1.326a1.357,1.357,0,0,0-.612.153v-.867a1.689,1.689,0,0,0-.2-.765h1.683a1.328,1.328,0,0,0-.2.765v.867A1.76,1.76,0,0,0,251.625,241.342Zm5.711.561a.784.784,0,0,1-.765.765h-2.855a.727.727,0,0,1-.612-.306c-.051-.051-.051-.1-.1-.153a.647.647,0,0,1-.051-.306v-1.224a.784.784,0,0,1,.765-.765h2.855a.784.784,0,0,1,.765.765Z" transform="translate(-213.8 -208.565)" fill="#324a5e"/>
    <g id="Group_485" data-name="Group 485" transform="translate(10.035 45.473)">
      <path id="Path_500" data-name="Path 500" d="M77.6,436.4c.051.1.153.153.2.2-.051-.051-.153-.1-.2-.2Z" transform="translate(-77.6 -426.1)" fill="#e6e9ee"/>
      <path id="Path_501" data-name="Path 501" d="M157.906,355.6c-.051,0-.1.051-.153.051s-.1-.051-.153-.051Z" transform="translate(-147.402 -355.6)" fill="#e6e9ee"/>
      <path id="Path_502" data-name="Path 502" d="M117.673,361.558a80.925,80.925,0,0,1-3.008,12.8,32.844,32.844,0,0,1-9.28-4.028,67,67,0,0,1-1.785-8.77c1.632-5.1,7.037-5.558,7.037-5.558S116.093,356.459,117.673,361.558Z" transform="translate(-100.286 -355.949)" fill="#e6e9ee"/>
    </g>
    <path id="Path_503" data-name="Path 503" d="M120.254,290.6s.816,4.589-6.476,8.159h-.051c-7.292-3.569-6.476-8.159-6.476-8.159H107.2c0-.051.051-.153.051-.2,1.785,2.193,4.028,3.62,6.476,3.62s4.64-1.428,6.476-3.62c.051.1.1.153.051.2C120.3,290.655,120.3,290.6,120.254,290.6Z" transform="translate(-93.392 -253.238)" fill="#f9b54c"/>
    <g id="Group_486" data-name="Group 486" transform="translate(17.837 45.524)">
      <path id="Path_504" data-name="Path 504" d="M158.851,356Z" transform="translate(-156.25 -356)" fill="#54c0eb"/>
      <path id="Path_505" data-name="Path 505" d="M143.95,356.714l-.867,2.5h-3.416l-.867-2.5a9.316,9.316,0,0,1,2.55-.714A9.391,9.391,0,0,1,143.95,356.714Z" transform="translate(-138.8 -356)" fill="#54c0eb"/>
    </g>
    <path id="Path_506" data-name="Path 506" d="M139.292,396.293,137.15,381.2h-3.416L132,393.387A31.561,31.561,0,0,0,139.292,396.293Z" transform="translate(-115.03 -332.463)" fill="#84dbff"/>
    <path id="Path_507" data-name="Path 507" d="M31.395,332.984A32.454,32.454,0,0,1,18.8,317.942l9.892-4.742c-1.02,4.283.867,11.218.918,11.065A80.561,80.561,0,0,0,31.395,332.984Z" transform="translate(-16.261 -273.132)" fill="#324a5e"/>
    <g id="Group_487" data-name="Group 487" transform="translate(12.151 37.366)">
      <path id="Path_508" data-name="Path 508" d="M165.276,292s.816,4.589-6.476,8.159c0,0,5.456.408,7.037,5.558C165.939,305.869,168.9,294.754,165.276,292Z" transform="translate(-150.565 -292)" fill="#fff"/>
      <path id="Path_509" data-name="Path 509" d="M95.957,292c-3.569,2.7-.612,13.869-.561,13.665,1.632-5.1,7.037-5.558,7.037-5.558C95.141,296.64,95.957,292,95.957,292Z" transform="translate(-94.198 -292)" fill="#fff"/>
    </g>
    <path id="Path_510" data-name="Path 510" d="M106.61,186.284a44.509,44.509,0,0,0-1.224,4.283c-1.887,2.6-4.334,4.334-7.037,4.334-2.549,0-4.844-1.581-6.731-3.926l.051.051c-3.977-4.9-1.224-13.92-1.224-13.92,1.989,2.244,8.413,2.4,8.413,2.4a3.767,3.767,0,0,1-3.263-2.7c.459,1.377,6.68,2.193,6.68,2.193C108.752,180.012,106.61,186.284,106.61,186.284Z" transform="translate(-77.963 -154.119)" fill="#ffd05b"/>
    <g id="Group_488" data-name="Group 488" transform="translate(7.673 12.829)">
      <path id="Path_511" data-name="Path 511" d="M68.064,100.294s8.77-3.518,13.207,4.436c4.793,8.464-1.224,17.694-2.448,18.408a44.512,44.512,0,0,1,1.224-4.283s2.142-6.272-4.283-7.241c0,0-6.272-.816-6.68-2.193a3.767,3.767,0,0,0,3.263,2.7s-6.425-.153-8.413-2.4c0,0-2.753,9.025,1.275,13.92,0,0-6.884-5.507-6.068-14.022C59.089,109.625,58.732,97.949,68.064,100.294Z" transform="translate(-59.073 -99.519)" fill="#324a5e"/>
      <path id="Path_512" data-name="Path 512" d="M212.675,334.573a32.28,32.28,0,0,1-21.875,2.091,80.927,80.927,0,0,0,3.008-12.8h0c.1,0,1.887-6.833.918-11.065l12.952,6.272Z" transform="translate(-174.008 -285.612)" fill="#324a5e"/>
    </g>
  </g>
</svg>
