<svg xmlns="http://www.w3.org/2000/svg" width="38.311" height="38.311" viewBox="0 0 38.311 38.311">
  <path id="twitter" d="M19.155,0A19.155,19.155,0,1,0,38.311,19.155,19.157,19.157,0,0,0,19.155,0ZM27.9,14.935q.013.283.013.568A12.425,12.425,0,0,1,15.4,28.013h0a12.445,12.445,0,0,1-6.739-1.975,8.942,8.942,0,0,0,1.049.061,8.822,8.822,0,0,0,5.461-1.882,4.4,4.4,0,0,1-4.108-3.054,4.382,4.382,0,0,0,1.986-.075,4.4,4.4,0,0,1-3.527-4.31c0-.02,0-.038,0-.056a4.366,4.366,0,0,0,1.991.55,4.4,4.4,0,0,1-1.361-5.87A12.483,12.483,0,0,0,19.219,16a4.4,4.4,0,0,1,7.492-4.01A8.819,8.819,0,0,0,29.5,10.919a4.414,4.414,0,0,1-1.933,2.432,8.769,8.769,0,0,0,2.525-.692A8.935,8.935,0,0,1,27.9,14.935Zm0,0" fill="#419ee5"/>
</svg>
