<svg width="167" height="192" viewBox="0 0 167 192" fill="none" xmlns="http://www.w3.org/2000/svg">
<path d="M32.7011 36.3798L66.7872 0.4212L71.0807 25.591C89.0573 22.9683 106.893 26.2222 122.21 34.3379C138.029 42.7193 151.157 56.1531 159.022 73.2771C174.753 107.527 165.516 148.073 136.514 172.035C107.513 195.998 65.8815 197.482 35.137 175.635C4.39451 153.79 -7.90076 113.987 5.18669 78.7162L16.3496 82.8907C5.1132 113.173 15.6419 147.208 42.0379 165.964C68.4326 184.72 104 183.439 128.9 162.867C153.8 142.294 161.719 107.613 148.211 78.2066C134.958 49.3498 104.363 32.9011 73.0866 37.3499L76.7998 59.1184L66.2023 53.6661L32.7011 36.3798Z" fill="black"/>
</svg>
