<svg id="whatsapp" xmlns="http://www.w3.org/2000/svg" width="32.262" height="32.262" viewBox="0 0 32.262 32.262">
  <path id="Path_384" data-name="Path 384" d="M21.476,17.045l-.012.1c-2.956-1.473-3.265-1.67-3.647-1.1-.265.4-1.036,1.3-1.269,1.562s-.469.282-.868.1a10.91,10.91,0,0,1-3.23-2,12.2,12.2,0,0,1-2.231-2.783c-.394-.68.43-.777,1.18-2.2a.739.739,0,0,0-.034-.7c-.1-.2-.9-2.178-1.239-2.965s-.655-.686-.9-.686a2,2,0,0,0-1.839.462c-2.17,2.385-1.622,4.845.234,7.461,3.648,4.775,5.592,5.654,9.146,6.874a5.561,5.561,0,0,0,2.527.163A4.137,4.137,0,0,0,22,19.425a3.327,3.327,0,0,0,.242-1.916c-.1-.181-.363-.282-.766-.464Z" transform="translate(2.057 2.187)" fill="#2ec63d"/>
  <path id="Path_385" data-name="Path 385" d="M27.584,4.636C17.248-5.355.142,1.891.136,15.987A15.91,15.91,0,0,0,2.28,23.979L0,32.262l8.516-2.221A16.091,16.091,0,0,0,32.262,16a15.854,15.854,0,0,0-4.7-11.306Zm1.992,11.314A13.384,13.384,0,0,1,9.4,27.382l-.484-.288L3.871,28.405l1.351-4.9L4.9,23A13.332,13.332,0,0,1,25.665,6.555a13.157,13.157,0,0,1,3.91,9.4Z" transform="translate(0 0)" fill="#2ec63d"/>
</svg>
