<svg width="256" height="214" viewBox="0 0 256 214" fill="none" xmlns="http://www.w3.org/2000/svg">
<path fill-rule="evenodd" clip-rule="evenodd" d="M82.9259 0L118.863 25.3135L35.4562 59.8481C23.6376 51.5282 11.8176 43.2041 0 34.8841L82.9259 0ZM168.172 0.136262L251.098 35.0193L217.257 58.835L133.85 24.3014L168.172 0.136262ZM127.577 30.9752L210.107 65.1592L127.577 99.3433L101.006 88.3425L66.8907 74.2295L44.9948 65.1592L127.577 30.9752ZM219.835 70.4183L255.154 95.2825C227.512 106.909 199.87 118.539 172.228 130.166L136.411 104.952L219.835 70.4183ZM35.6452 70.5546L63.4361 82.0547L97.5518 96.1843L119.035 105.088L82.9259 130.518L0 95.6351L35.6452 70.5546ZM131.977 112.361L169.1 138.49C170.357 139.376 172.003 139.555 173.431 138.959C187.477 133.051 201.526 127.145 215.573 121.235V179.45L131.977 214V112.364V112.361ZM123.177 112.694V213.998L39.581 179.448V121.581L81.7228 139.306C83.1506 139.902 84.797 139.724 86.0538 138.837L123.177 112.691V112.694ZM166.952 159.893H166.9C166.36 159.893 165.829 160.046 165.336 160.259L141.927 169.945C136.53 172.186 140.002 180.026 145.399 177.784L168.79 168.097C173.436 166.33 171.936 159.624 166.951 159.877L166.952 159.893ZM190.343 165.701H190.291C189.751 165.701 189.22 165.854 188.727 166.067L165.336 175.753L141.927 185.439C136.204 187.545 139.882 195.833 145.399 193.261L168.79 183.592L192.181 173.906C196.831 172.14 195.33 165.428 190.342 165.683L190.343 165.701Z" fill="black"/>
<rect x="131.692" y="172.846" width="65.5901" height="26.5739" transform="rotate(-21.2814 131.692 172.846)" fill="black"/>
</svg>
