<svg xmlns="http://www.w3.org/2000/svg" width="132.208" height="132.23" viewBox="0 0 132.208 132.23">
  <g id="discount-label" transform="translate(-1.057 -1.054)">
    <path id="Path_81" data-name="Path 81" d="M132.983,46.952c2.1,6.254-8.28,13.836-8.3,20.4-.042,6.568,10.3,14.217,8.159,20.457s-15.2,6.539-19.259,11.84-.4,17.294-5.973,21.136-16.318-3.255-22.857-1.247-10.955,13.764-17.823,13.742-11.2-11.806-17.726-13.857-17.323,4.977-22.866,1.1-1.8-15.848-5.823-21.175S3.437,93.64,1.337,87.387s8.28-13.836,8.3-20.4c.042-6.568-10.3-14.217-8.159-20.457s15.2-6.539,19.258-11.84.4-17.294,5.973-21.136S43.032,16.8,49.571,14.8,60.526,1.032,67.394,1.054,78.595,12.86,85.12,14.911s17.323-4.977,22.866-1.1,1.8,15.848,5.823,21.175,17.074,5.711,19.174,11.964Z" transform="translate(0.001 0)" fill="#000"/>
    <path id="Path_82" data-name="Path 82" d="M27.007,18.978a8.262,8.262,0,1,1-8.262-8.262,8.262,8.262,0,0,1,8.262,8.262ZM64.2,54.226a8.262,8.262,0,1,1-8.262-8.262A8.262,8.262,0,0,1,64.2,54.226Z" transform="translate(29.819 30.567)" fill="#000"/>
    <path id="Path_83" data-name="Path 83" d="M12.539,51.573a5.506,5.506,0,1,0,7.787,7.787L59.367,20.32a5.505,5.505,0,0,0-7.785-7.786Z" transform="translate(31.211 31.221)" fill="#fff"/>
    <path id="Path_84" data-name="Path 84" d="M6.863,18.58c-2.917,4.585-6.9,9.26-5.525,13.363,2.1,6.254,15.157,6.636,19.175,11.963s.28,17.3,5.822,21.176,16.342-3.151,22.867-1.1S60.057,77.819,66.926,77.84,78.21,66.106,84.749,64.1s17.286,5.088,22.856,1.246,1.917-15.834,5.973-21.135,17.113-5.6,19.258-11.84c1.425-4.148-2.66-8.918-5.553-13.581A78.425,78.425,0,0,1,67.16,46.857,78.425,78.425,0,0,1,6.863,18.58Z" transform="translate(0 55.444)" fill="#000"/>
    <path id="Path_85" data-name="Path 85" d="M27.007,18.978a8.262,8.262,0,1,1-8.262-8.262,8.262,8.262,0,0,1,8.262,8.262ZM64.2,54.226a8.262,8.262,0,1,1-8.262-8.262A8.262,8.262,0,0,1,64.2,54.226Z" transform="translate(29.819 30.567)" fill="#fff"/>
    <path id="Path_86" data-name="Path 86" d="M12.539,51.573a5.506,5.506,0,1,0,7.787,7.787L59.367,20.32a5.505,5.505,0,0,0-7.785-7.786Z" transform="translate(31.211 31.221)" fill="#fff"/>
  </g>
</svg>
