<svg xmlns="http://www.w3.org/2000/svg" width="153.995" height="200.865" viewBox="0 0 153.995 200.865">
  <g id="Group_204" data-name="Group 204" transform="translate(-6515 -8689)">
    <path id="unlock" d="M156.3,75.651H136.213V52.29a50.292,50.292,0,0,0-99.4-10.834c-.4,1.806,2.718,5.265,4.524,5.663s7.1-1.152,7.495-2.958a43.272,43.272,0,0,1,8.679-18.146c6.776-8.807,17.074-14.181,31.361-12.623,22.115,2.411,34.908,15.032,34.911,37.278V75.651H15.7a6.7,6.7,0,0,0-6.7,6.7V196.169a6.7,6.7,0,0,0,6.7,6.7H156.3a6.7,6.7,0,0,0,6.7-6.7V82.347a6.7,6.7,0,0,0-6.7-6.7Z" transform="translate(6506 8687.001)" fill="#000"/>
    <path id="rupee_2_" data-name="rupee (2)" d="M56.6,19.859H47.287a23.139,23.139,0,0,0-4.215-8.429H56.6A4.215,4.215,0,1,0,56.6,3H10.24a4.215,4.215,0,0,0,0,8.429H24.991a14.752,14.752,0,0,1,13.276,8.429H10.24a4.215,4.215,0,1,0,0,8.429h29.5A14.752,14.752,0,0,1,25.2,40.932H10.24a2.95,2.95,0,0,0-.59,0,2.74,2.74,0,0,0-.843,0,2.908,2.908,0,0,0-.8.421l-.506.3h0a3.161,3.161,0,0,0-.59.717,4.637,4.637,0,0,0-.379.59,2.571,2.571,0,0,0,0,.759,2.74,2.74,0,0,0-.506,1.433h0a2.95,2.95,0,0,0,0,.59,2.74,2.74,0,0,0,0,.843,2.908,2.908,0,0,0,.421.8.619.619,0,0,0,.3.506L32.03,77.39a4.215,4.215,0,1,0,6.406-5.479L19.428,49.362h5.563A23.181,23.181,0,0,0,48.172,28.288H56.6a4.215,4.215,0,1,0,0-8.429Z" transform="translate(6558.593 8786.433)" fill="#fff"/>
  </g>
</svg>
