<?xml version="1.0" standalone="no"?>
<!DOCTYPE svg PUBLIC "-//W3C//DTD SVG 1.1//EN" "http://www.w3.org/Graphics/SVG/1.1/DTD/svg11.dtd" >
<svg xmlns="http://www.w3.org/2000/svg">
<metadata>Generated by IcoMoon</metadata>
<defs>
<font id="icomoon" horiz-adv-x="1024">
<font-face units-per-em="1024" ascent="960" descent="-64" />
<missing-glyph horiz-adv-x="1024" />
<glyph unicode="&#x20;" horiz-adv-x="512" d="" />
<glyph unicode="&#xe900;" glyph-name="User" horiz-adv-x="1016" d="M509.807 960c157.843-0.337 285.709-128.203 286.045-286.013v-0.032c-1.945-116.405-72.172-215.943-172.278-260.454l-1.847-0.733c222.481-50.498 387.171-243.471 393.918-476.043l0.017-0.725h-66.314c-12.214 233.461-204.15 418.223-439.393 418.911h-0.068c-1.223 0.012-2.668 0.019-4.116 0.019-234.726 0-426.097-185.628-435.319-418.093l-0.026-0.838h-70.424c10.057 232.047 173.12 423.331 390.355 476.050l3.5 0.718c-100.986 45.588-169.999 145.407-169.999 261.345 0 157.891 127.996 285.887 285.887 285.887 0.022 0 0.044 0 0.066 0h-0.003zM509.807 889.536c-1.228 0.025-2.677 0.040-4.128 0.040-119.084 0-215.621-96.537-215.621-215.621s96.537-215.621 215.621-215.621c1.452 0 2.9 0.014 4.344 0.043l-0.216-0.003c119.062 0 215.581 96.519 215.581 215.581s-96.519 215.581-215.581 215.581v0z" />
<glyph unicode="&#xe901;" glyph-name="hamburger-menu" horiz-adv-x="1268" d="M73.143 960h1121.524c40.396 0 73.143-32.747 73.143-73.143s-32.747-73.143-73.143-73.143h-1121.524c-40.396 0-73.143 32.747-73.143 73.143s32.747 73.143 73.143 73.143zM73.143 521.143h1121.524c40.396 0 73.143-32.747 73.143-73.143s-32.747-73.143-73.143-73.143h-1121.524c-40.396 0-73.143 32.747-73.143 73.143s32.747 73.143 73.143 73.143zM73.143 82.286h1121.524c40.396 0 73.143-32.747 73.143-73.143s-32.747-73.143-73.143-73.143h-1121.524c-40.396 0-73.143 32.747-73.143 73.143s32.747 73.143 73.143 73.143z" />
<glyph unicode="&#xe902;" glyph-name="search" horiz-adv-x="987" d="M972.965 18.33l-288.258 273.883-39.617-20.634-27.512-39.961 287.020-281.517c8.731-8.731 20.792-14.131 34.115-14.131 26.645 0 48.246 21.6 48.246 48.246 0 13.323-5.4 25.384-14.131 34.115v0zM411.718 136.426c-227.424 0-411.787 184.363-411.787 411.787s184.363 411.787 411.787 411.787c227.424 0 411.787-184.363 411.787-411.787v0c-0.274-227.314-184.474-411.514-411.761-411.787h-0.026zM411.718 897.272c-192.78 0-349.060-156.279-349.060-349.060s156.279-349.060 349.060-349.060c192.78 0 349.060 156.279 349.060 349.060v0c-0.235 192.686-156.374 348.825-349.037 349.060h-0.022z" />
<glyph unicode="&#xe903;" glyph-name="bell" d="M900.402 145.094c-3.010 1.954-25.664 17.824-48.348 65.834-41.658 88.164-50.402 212.36-50.402 301.022 0 0.386-0.008 0.768-0.022 1.152-0.454 117.178-70.62 218.19-171.028 263.512v69.314c0 62.9-51.088 114.072-113.884 114.072h-9.438c-62.796 0-113.884-51.172-113.884-114.072v-69.31c-100.744-45.468-171.050-146.996-171.050-264.668 0-88.662-8.744-212.856-50.402-301.022-22.682-48.008-45.336-63.878-48.348-65.834-12.684-5.87-18.938-19.43-16.020-33.172 2.946-13.878 15.918-23.446 30.084-23.446h219.894c1.228-84.282 70.016-152.476 154.446-152.476s153.218 68.194 154.446 152.476h219.894c14.164 0 27.138 9.568 30.084 23.446 2.914 13.742-3.338 27.304-16.022 33.172zM453.398 845.928c0 29.762 24.172 53.974 53.884 53.974h9.438c29.712 0 53.884-24.212 53.884-53.974v-49.834c-18.936 3.914-38.538 5.974-58.612 5.974-20.068 0-39.664-2.058-58.592-5.968v49.828zM512-3.902c-51.346 0-93.228 41.234-94.446 92.376h188.89c-1.216-51.14-43.098-92.376-94.444-92.376zM632.8 148.576c-0.006 0-426.77 0-426.77 0 5.19 8.088 10.472 17.246 15.722 27.596 40.208 79.286 60.596 192.258 60.596 335.778 0 126.834 103.018 230.020 229.642 230.020s229.642-103.186 229.642-230.12c0-0.37 0.006-0.738 0.020-1.106 0.114-142.944 20.5-255.51 60.596-334.572 5.25-10.352 10.534-19.508 15.722-27.596z" />
<glyph unicode="&#xe904;" glyph-name="order" d="M463.954 451.446c-101.244 0-183.612-82.37-183.612-183.618 0-101.278 82.368-183.672 183.612-183.672 101.276 0 183.67 82.396 183.67 183.672 0 101.248-82.396 183.618-183.67 183.618zM463.954 124.156c-79.188 0-143.612 64.452-143.612 143.672 0 79.19 64.424 143.618 143.612 143.618 79.22 0 143.67-64.426 143.67-143.618 0-79.222-64.45-143.672-143.67-143.672zM521.496 287.828h-37.542v62.772c0 11.046-8.956 20-20 20s-20-8.954-20-20v-82.772c0-11.046 8.956-20 20-20h57.542c11.044 0 20 8.954 20 20s-8.954 20-20 20zM965.052 892.804h-561.192c-32.504 0-58.948-26.444-58.948-58.95v-329.792c-23.844-12.064-45.614-27.648-64.652-46.042h-81.056c-11.044 0-20-8.954-20-20s8.956-20 20-20h47.096c-9.764-14.104-18.186-29.196-25.096-45.096h-95.078c-11.044 0-20-8.954-20-20s8.956-20 20-20h81.366c-3.706-14.59-6.186-29.662-7.346-45.096h-180.146c-11.044 0-20-8.954-20-20s8.956-20 20-20h180.136c1.158-15.436 3.652-30.504 7.356-45.096h-81.366c-11.044 0-20-8.954-20-20s8.956-20 20-20h95.040c6.906-15.9 15.328-30.992 25.084-45.096h-47.046c-11.044 0-20-8.954-20-20s8.956-20 20-20h80.992c47.628-46.054 112.438-74.438 183.758-74.438 127.388 0 234.034 90.486 259.062 210.56h242.036c32.504 0 58.948 26.444 58.948 58.948v561.148c0 32.506-26.444 58.95-58.948 58.95zM611.792 852.804h145.326v-181.336l-61.26 42.676c-6.872 4.788-15.998 4.786-22.87-0.002l-61.198-42.66v181.322zM463.954 43.196c-123.828 0-224.568 100.77-224.568 224.632 0 123.832 100.74 224.576 224.568 224.576 123.86 0 224.624-100.744 224.624-224.576 0-123.862-100.766-224.632-224.624-224.632zM984 272.704c0-10.448-8.5-18.948-18.948-18.948h-236.848c0.246 4.66 0.376 9.352 0.376 14.072 0 145.888-118.71 264.576-264.624 264.576-27.52 0-54.070-4.23-79.042-12.062v313.512c0 10.448 8.5 18.95 18.948 18.95h167.934v-219.644c0-7.45 4.14-14.284 10.746-17.73 6.604-3.448 14.576-2.938 20.692 1.324l81.202 56.604 81.256-56.608c3.418-2.382 7.416-3.59 11.434-3.59 3.166 0 6.344 0.75 9.254 2.27 6.604 3.448 10.744 10.28 10.744 17.73v219.644h167.934c10.448 0 18.948-8.5 18.948-18.95v-561.15zM83.324 418.022h34.072c11.044 0 20 8.954 20 20s-8.956 20-20 20h-34.072c-11.044 0-20-8.954-20-20s8.956-20 20-20zM117.396 117.634h-34.072c-11.044 0-20-8.954-20-20s8.956-20 20-20h34.072c11.044 0 20 8.954 20 20s-8.954 20-20 20z" />
<glyph unicode="&#xe905;" glyph-name="product" d="M763.088 549.688l-130.12 50.4c4.608 12.679 7.272 27.313 7.272 42.57 0 70.825-57.415 128.24-128.24 128.24s-128.24-57.415-128.24-128.24c0-15.257 2.664-29.892 7.553-43.464l-0.281 0.894-130.12-50.4c-5.261-2.093-8.912-7.142-8.912-13.043 0-0.002 0-0.004 0-0.006v0-301.824c0-0.001 0-0.003 0-0.004 0-5.91 3.662-10.965 8.841-13.019l0.095-0.033 246-95.36c1.502-0.597 3.243-0.944 5.064-0.944v0c1.809 0.038 3.519 0.417 5.083 1.074l-0.091-0.034 0.072-0.096 246.024 95.36c5.261 2.093 8.912 7.142 8.912 13.043 0 0.005 0 0.009 0 0.014v-0.001 301.824c0 0.002 0 0.003 0 0.005 0 5.901-3.651 10.95-8.818 13.009l-0.094 0.033zM719.288 536.64l-45.416-17.6-75.264 28.96c8.45 7.792 15.789 16.596 21.878 26.266l0.314 0.534zM571.072 528.592l64-24.616-36.136-14-66.288 25.896c14.39 2.372 27.304 6.811 39.118 13.054l-0.694-0.334zM614.632 466.040l47.016 18.224v-58.328l-7.864 5.128c-2.156 1.422-4.8 2.268-7.642 2.268-4.012 0-7.63-1.687-10.184-4.389l-0.006-0.007-21.32-22.624zM512 742.544c55.361 0 100.24-44.879 100.24-100.24s-44.879-100.24-100.24-100.24c-55.361 0-100.24 44.879-100.24 100.24v0c0.064 55.335 44.905 100.176 100.234 100.24h0.006zM411.2 563.344l-18.736 7.32 10.728 4.16c2.751-4.431 5.39-8.183 8.218-11.781l-0.21 0.277zM353.848 555.696l206.432-80.696-48.28-18.712-207.288 80.352zM280 244.408v271.784l218-84.512v-271.784zM526 159.896v271.784l60.632 23.52v-84.168c0.003-5.871 3.619-10.897 8.746-12.974l0.094-0.034c1.524-0.628 3.293-0.992 5.147-0.992 0.005 0 0.009 0 0.014 0h-0.001c0.002 0 0.003 0 0.005 0 4.012 0 7.629 1.688 10.18 4.393l0.006 0.007 37.48 39.784 19.704-12.8c2.146-1.406 4.775-2.242 7.6-2.242 7.722 0 13.983 6.251 14 13.969v94.978l54.392 21.072v-271.784zM487.064 601.104c2.422-2.060 5.587-3.313 9.044-3.313 3.603 0 6.887 1.361 9.369 3.596l-0.013-0.011 67.896 61.024c3.064 2.585 4.997 6.427 4.997 10.721 0 7.732-6.268 14-14 14-3.776 0-7.203-1.495-9.721-3.925l0.004 0.004-58.816-52.872-26.784 22.64c-2.422 2.058-5.585 3.309-9.040 3.309-7.733 0-14.001-6.269-14.001-14.001 0-4.278 1.918-8.107 4.941-10.675l0.020-0.017z" />
<glyph unicode="&#xe906;" glyph-name="catalog" d="M532.157 65.008c0-11.107-9.051-20.157-20.157-20.157s-20.157 9.051-20.157 20.157 9.051 20.157 20.157 20.157 20.157-9.051 20.157-20.157zM757.921 407.685v181.417c0 11.131 9.027 20.157 20.157 20.157h145.134c11.131 0 20.157-9.027 20.157-20.157v-181.417c0-11.131-9.027-20.157-20.157-20.157h-145.134c-11.131 0-20.157 9.027-20.157 20.157zM798.236 427.843h104.819v141.102h-104.819zM757.921 327.055c0 11.131 9.027 20.157 20.157 20.157h145.134c11.131 0 20.157-9.027 20.157-20.157v-181.417c0-11.131-9.027-20.157-20.157-20.157h-145.134c-11.131 0-20.157 9.027-20.157 20.157zM798.236 165.795h104.819v141.102h-104.819zM532.157 407.685v181.417c0 11.131 9.027 20.157 20.157 20.157h145.134c11.131 0 20.157-9.027 20.157-20.157v-181.417c0-11.131-9.027-20.157-20.157-20.157h-145.134c-11.131 0-20.157 9.027-20.157 20.157zM572.472 427.843h104.819v141.102h-104.819zM697.449 125.48h-145.134c-11.131 0-20.157 9.027-20.157 20.157v181.417c0 11.131 9.027 20.157 20.157 20.157h145.134c11.131 0 20.157-9.027 20.157-20.157v-181.417c0-11.131-9.027-20.157-20.157-20.157zM677.291 306.898h-104.819v-141.102h104.819zM306.394 407.685v181.417c0 11.131 9.027 20.157 20.157 20.157h145.134c11.131 0 20.157-9.027 20.157-20.157v-181.417c0-11.131-9.027-20.157-20.157-20.157h-145.134c-11.131 0-20.157 9.027-20.157 20.157zM346.709 427.843h104.819v141.102h-104.819zM491.843 145.638c0-11.131-9.027-20.157-20.157-20.157h-145.134c-11.131 0-20.157 9.027-20.157 20.157v181.417c0 11.131 9.027 20.157 20.157 20.157h145.134c11.131 0 20.157-9.027 20.157-20.157zM451.528 306.898h-104.819v-141.102h104.819zM120.945 750.362c0-11.133-9.025-20.157-20.157-20.157s-20.157 9.025-20.157 20.157 9.025 20.157 20.157 20.157 20.157-9.025 20.157-20.157zM211.654 750.362c0-11.133-9.025-20.157-20.157-20.157s-20.157 9.025-20.157 20.157 9.025 20.157 20.157 20.157 20.157-9.025 20.157-20.157zM302.362 750.362c0-11.133-9.025-20.157-20.157-20.157s-20.157 9.025-20.157 20.157 9.025 20.157 20.157 20.157 20.157-9.025 20.157-20.157zM40.345 426.288c0.822-21.816 19.442-38.761 41.274-38.761h164.302c11.133 0 20.157-9.025 20.157-20.157v-282.205h154.491c10.72 0 20.103-8.063 20.833-18.759 0.798-11.736-8.543-21.556-20.111-21.556h-401.134c-11.133 0-20.157 9.025-20.157 20.157v725.669c0 33.399 27.074 60.472 60.472 60.472h903.055c33.399 0 60.472-27.074 60.472-60.472v-725.669c0-11.133-9.025-20.157-20.157-20.157h-401.134c-11.568 0-20.909 9.821-20.109 21.556 0.728 10.696 10.111 18.759 20.831 18.759h380.255v564.409h-717.606v-131.024c0-11.133-9.025-20.157-20.157-20.157h-165.291c-22.746 0-41.151-18.934-40.285-41.869zM40.315 689.89h943.37v100.787c0 11.115-9.043 20.157-20.157 20.157h-903.055c-11.115 0-20.157-9.043-20.157-20.157zM225.764 85.165v110.866h-185.449v-110.866zM225.764 347.213h-145.134c-14.681 0-28.446 3.963-40.315 10.849v-121.715h185.449zM225.764 649.575h-185.449v-121.715c11.869 6.886 25.634 10.849 40.315 10.849h145.134z" />
<glyph unicode="&#xe907;" glyph-name="menu" d="M353.584 960h-235.168c-65.294 0-118.416-53.122-118.416-118.416v-235.168c0-65.294 53.122-118.416 118.416-118.416h235.168c65.294 0 118.416 53.122 118.416 118.416v235.168c0 65.294-53.122 118.416-118.416 118.416zM392 606.416c0-21.182-17.234-38.416-38.416-38.416h-235.168c-21.182 0-38.416 17.234-38.416 38.416v235.168c0 21.182 17.234 38.416 38.416 38.416h235.168c21.182 0 38.416-17.234 38.416-38.416v-235.168zM904 960h-232c-66.168 0-120-53.832-120-120v-232c0-66.168 53.832-120 120-120h232c66.168 0 120 53.832 120 120v232c0 66.168-53.832 120-120 120zM944 608c0-22.056-17.944-40-40-40h-232c-22.056 0-40 17.944-40 40v232c0 22.056 17.944 40 40 40h232c22.056 0 40-17.944 40-40v-232zM353.584 408h-235.168c-65.294 0-118.416-53.122-118.416-118.416v-235.168c0-65.294 53.122-118.416 118.416-118.416h235.168c65.294 0 118.416 53.122 118.416 118.416v235.168c0 65.294-53.122 118.416-118.416 118.416zM392 54.416c0-21.182-17.234-38.416-38.416-38.416h-235.168c-21.182 0-38.416 17.234-38.416 38.416v235.168c0 21.182 17.234 38.416 38.416 38.416h235.168c21.182 0 38.416-17.234 38.416-38.416v-235.168zM904 408h-232c-66.168 0-120-53.832-120-120v-232c0-66.168 53.832-120 120-120h232c66.168 0 120 53.832 120 120v232c0 66.168-53.832 120-120 120zM944 56c0-22.056-17.944-40-40-40h-232c-22.056 0-40 17.944-40 40v232c0 22.056 17.944 40 40 40h232c22.056 0 40-17.944 40-40v-232z" />
<glyph unicode="&#xe908;" glyph-name="support" d="M862.285 609.715c0 193.457-156.828 350.285-350.285 350.285s-350.285-156.828-350.285-350.285c-50.013-6.227-97.301-38.921-97.301-114.816v-182.927c0-85.625 59.938-116.762 116.762-116.762h56.435c10.747 0 19.46 8.713 19.46 19.46v376.751c0 10.747-8.713 19.46-19.46 19.46h-36.975c0 171.961 139.404 311.365 311.365 311.365s311.365-139.404 311.365-311.365h-36.975c-10.747 0-19.46-8.713-19.46-19.46v-376.167c0-10.747 8.713-19.46 19.46-19.46h36.975c-5.449-133.692-69.668-165.023-197.911-170.667v13.038c0 21.496-17.424 38.921-38.921 38.921h-122.405c-21.496 0-38.921-17.424-38.921-38.921v-63.246c0-21.496 17.424-38.921 38.921-38.921h122.794c21.496 0 38.921 17.424 38.921 38.921v11.287c123.378 5.643 230.021 31.136 236.442 210.755 50.013 6.227 97.301 38.921 97.301 114.816v182.927c0 76.284-47.094 108.783-97.301 115.010zM218.15 573.324v-338.609h-37.948c-28.801 0-77.841 10.119-77.841 77.841v182.927c0 67.138 48.456 77.841 77.841 77.841h37.948zM586.922 4.306v-29.58h-122.794v63.246h122.794v-33.666zM920.666 311.973c0-67.138-48.456-77.841-77.841-77.841h-36.975v337.83h37.948c28.801 0 77.841-10.119 77.841-77.841l-0.973-182.148z" />
<glyph unicode="&#xe909;" glyph-name="contract" d="M916.016 910.251h-662.154c-57.466 0-104.219-46.316-104.219-103.061l-4.267-583.061h-129.223c-9.158 0-16.154-8.097-16.154-17.255v-80.243c0-75.117 60.113-136.551 132.664-139.919v-0.964h557.603v1.085c4.146-0.17 6.656-1.085 9.506-1.085h0.397c77.377 0.453 139.749 63.522 139.344 140.899v509.984h168.332c9.158 0 16.154 8.291 16.154 17.441v147.231c0.105 59.838-48.146 108.518-107.984 108.947zM139.919 18.915h-0.113c-58.988 0-106.64 48.753-106.64 107.733v64.316h526.51v-64.040c-0.13-37.328 14.615-73.166 40.972-99.595 2.802-2.818 5.733-4.267 8.729-8.413zM806.348 126.664c0-58.996-47.19-107.749-106.202-107.749h-0.34c-59.304 0.429-107.101 48.696-106.964 108v79.96c0.049 9.287-7.296 16.931-16.583 17.255h-397.717l4.267 582.947c0 38.567 31.87 70.008 71.053 70.008h583.862c-18.899-20.729-31.377-46.955-31.377-76.227zM990.834 801.012v-131.215h-151.32v131.093c0 41.506 34.526 76.194 76.016 76.194h0.462c41.595-0.413 75.036-34.348 74.842-75.951zM389.401 502.073l85.498-58.453c5.579-3.846 12.955-3.846 18.534 0l85.239 58.437c29.611 20.202 51.482 62.437 51.482 98.251v118.267c0.178 6.251-3.271 12.049-8.842 14.891l-130.178 64.032c-4.567 2.267-9.927 2.267-14.494 0l-129.935-63.854c-5.571-2.842-9.012-8.64-8.826-14.891v-118.445c0-35.814 21.919-78.049 51.522-98.235zM371.044 708.405l112.972 55.741 112.972-55.895v-107.943c0-24.98-16.372-56.753-37.028-70.834l-76.138-52.073-75.838 52.065c-20.656 14.097-36.939 45.862-36.939 70.842zM455.968 575.271c3.093-3.158 7.32-4.947 11.741-4.972h0.040c4.405 0.016 8.623 1.781 11.725 4.907l65.968 65.992c6.486 6.478 6.486 16.988 0.008 23.466-6.47 6.486-16.98 6.486-23.457 0.008l-54.186-54.178-21.66 21.87c-6.453 6.51-16.955 6.559-23.466 0.105s-6.551-16.955-0.105-23.466zM690.267 396.178h-397.992c-9.158 0-16.583-7.425-16.583-16.583s7.425-16.583 16.583-16.583h397.992c9.158 0 16.583 7.425 16.583 16.583s-7.425 16.583-16.583 16.583zM690.267 319.482h-397.992c-9.158 0-16.583-7.425-16.583-16.583s7.425-16.583 16.583-16.583h397.992c9.158 0 16.583 7.425 16.583 16.583s-7.425 16.583-16.583 16.583z" />
<glyph unicode="&#xe90a;" glyph-name="app-1" d="M556.522 114.087c0-24.589-19.933-44.522-44.522-44.522s-44.522 19.933-44.522 44.522c0 24.589 19.933 44.522 44.522 44.522s44.522-19.933 44.522-44.522zM438.695 552.782l-89.043 89.043c-8.704 8.704-22.773 8.704-31.477 0s-8.704-22.773 0-31.477l73.305-73.305-73.305-73.305c-8.704-8.704-8.704-22.773 0-31.477 4.341-4.341 10.040-6.522 15.738-6.522s11.398 2.182 15.738 6.522l89.043 89.043c8.704 8.704 8.704 22.773 0 31.477zM690.087 470.261h-178.087c-12.288 0-22.261-9.973-22.261-22.261s9.973-22.261 22.261-22.261h178.087c12.288 0 22.261 9.973 22.261 22.261s-9.973 22.261-22.261 22.261zM690.087 603.826h-133.565c-12.288 0-22.261-9.973-22.261-22.261s9.973-22.261 22.261-22.261h133.565c12.288 0 22.261 9.973 22.261 22.261s-9.973 22.261-22.261 22.261zM690.087 336.696h-356.174c-12.288 0-22.261-9.973-22.261-22.261s9.973-22.261 22.261-22.261h356.174c12.288 0 22.261 9.973 22.261 22.261s-9.973 22.261-22.261 22.261zM734.52 960c-4.118 0-445.128 0-445.128 0s0 0-0.022 0c-29.718 0-57.656-11.576-78.67-32.59s-32.612-48.996-32.612-78.714v-44.477c0-0.022 0-0.022 0-0.045s0-0.022 0-0.045v-756.825c0-61.373 49.931-111.304 111.304-111.304h445.217c61.373 0 111.304 49.931 111.304 111.304v801.391c0 61.373-49.931 111.304-111.393 111.304zM222.609 848.696c0 17.831 6.945 34.616 19.567 47.215 12.6 12.6 29.362 19.567 47.193 19.567h222.609c148.124 0 201.617 0 222.609 1.714v-1.714c36.819 0 66.783-29.963 66.783-66.783v-22.261h-578.76v22.261zM801.391 47.304c0-36.819-29.963-66.783-66.783-66.783h-445.217c-36.819 0-66.783 29.963-66.783 66.783v734.609h578.783v-734.609z" />
<glyph unicode="&#xe90b;" glyph-name="shutdown" d="M511.727-64c-233.641 0-423.727 190.070-423.727 423.727 0 190.305 128.016 358.344 311.328 408.656 18.773 5.063 38.219-5.898 43.398-24.727 5.148-18.797-5.898-38.242-24.711-43.383-152.719-41.93-259.398-181.961-259.398-340.547 0-194.688 158.398-353.109 353.109-353.109 194.703 0 353.102 158.422 353.102 353.109 0 154.859-103.516 293.992-251.727 338.344-18.688 5.586-29.289 25.273-23.703 43.961 5.602 18.656 25.328 29.242 43.945 23.688 177.875-53.234 302.102-220.164 302.102-405.992 0-233.656-190.078-423.727-423.719-423.727zM511.727 500.969c-19.5 0-35.313 15.789-35.313 35.305v388.414c0 19.523 15.813 35.313 35.313 35.313s35.305-15.789 35.305-35.313v-388.414c0-19.516-15.805-35.305-35.305-35.305z" />
<glyph unicode="&#xe90c;" glyph-name="chat" d="M990.509 170.469c22.223 46.869 33.483 97.138 33.483 149.584 0 187.216-148.605 340.562-334.686 349.566-41.935 151.056-179.686 256.42-337.298 256.42-194.089 0-351.992-157.006-351.992-349.992 0-52.447 11.26-102.716 33.483-149.584l-32.901-164.526c-4.188-20.944 14.288-39.455 35.235-35.311l166.554 32.929c41.723-19.792 86.106-30.851 132.337-33.057 58.295-209.897 292.427-315.179 486.893-222.937 182.41-36.063 168.184-33.499 172.374-33.499 18.958 0 33.119 17.372 29.417 35.881zM220.187 317.665c-6.002 3.068-12.866 4.026-19.474 2.718l-132.477-26.193 26.097 130.497c1.326 6.63 0.374 13.518-2.708 19.54-20.974 41.031-31.611 85.38-31.611 131.821 0 159.902 130.987 289.993 291.993 289.993 125.827 0 236.632-81.818 275.356-198.829-183.408-23.449-321.542-188.94-303.821-379.773-36.149 3.474-70.78 13.574-103.356 30.227zM929.676 168.693l26.097-130.497-132.477 26.193c-6.612 1.306-13.472 0.35-19.474-2.718-41.031-20.974-85.38-31.611-131.821-31.611-159.902 0-289.993 130.091-289.993 289.993s130.091 289.993 289.993 289.993c161.006 0 291.993-130.091 291.993-289.993 0-46.441-10.636-90.79-31.611-131.821-3.082-6.022-4.034-12.908-2.708-19.54z" />
<glyph unicode="&#xe90d;" glyph-name="packing" horiz-adv-x="825" d="M810.856 609.056l-206.419 79.974c7.297 20.098 11.517 43.295 11.517 67.478 0 112.356-91.083 203.439-203.439 203.439s-203.439-91.083-203.439-203.439c0-24.183 4.22-47.381 11.963-68.897l-0.446 1.419-206.419-79.974c-8.343-3.327-14.133-11.336-14.134-20.698v0-478.838c0.009-9.371 5.815-17.384 14.024-20.646l0.15-0.053 390.287-151.291c2.378-0.943 5.133-1.49 8.016-1.49 0.013 0 0.026 0 0.040 0h-0.002c2.914 0.042 5.676 0.645 8.199 1.705l-0.145-0.054 390.327 151.291c8.343 3.327 14.133 11.336 14.134 20.698v0 478.677c-0.002 9.362-5.791 17.371-13.985 20.645l-0.15 0.053zM741.352 588.358l-72.041-27.906-119.398 45.947c13.402 12.365 25.040 26.334 34.697 41.676l0.498 0.848zM506.221 575.592l101.518-39.061-57.343-22.228-105.183 41.074c22.83 3.746 43.322 10.775 62.070 20.665l-1.103-0.53zM575.323 476.369l74.578 28.913v-92.619l-12.483 8.054c-3.405 2.228-7.576 3.553-12.056 3.553-6.347 0-12.073-2.66-16.123-6.926l-0.009-0.010-33.826-35.88zM412.475 915.020c87.825 0 159.022-71.197 159.022-159.022s-71.197-159.022-159.022-159.022c-87.826 0-159.022 71.197-159.022 159.022 0 0.057 0 0.113 0 0.17v-0.009c0 87.826 71.197 159.022 159.022 159.022v0zM252.567 630.721l-29.719 11.597 17.034 6.604c4.37-7.023 8.564-12.973 13.056-18.677l-0.331 0.435zM161.559 618.64l327.548-128.257-76.511-29.678-328.877 127.492zM44.296 124.741v431.16l345.991-133.975v-431.281zM434.583-9.355v431.281l96.203 37.329v-133.532c0.016-9.303 5.745-17.264 13.865-20.564l0.149-0.053c2.383-0.98 5.149-1.556 8.048-1.57h0.006c6.343 0.011 12.060 2.681 16.098 6.956l0.010 0.011 59.759 63.101 31.249-20.134c3.402-2.222 7.567-3.543 12.041-3.543 12.248 0 22.182 9.906 22.228 22.143v150.529l86.296 33.423v-431.281zM372.931 690.56c3.844-3.263 8.862-5.247 14.343-5.247 5.719 0 10.933 2.159 14.872 5.707l-0.020-0.018 107.72 96.646c5.046 4.108 8.243 10.319 8.243 17.277 0 12.276-9.952 22.228-22.228 22.228-6.146 0-11.709-2.494-15.732-6.525v0l-93.303-83.88-42.484 35.92c-3.7 2.854-8.403 4.574-13.507 4.574-12.276 0-22.228-9.952-22.228-22.228 0-6.409 2.712-12.184 7.051-16.24l0.013-0.012z" />
<glyph unicode="&#xe90e;" glyph-name="information" d="M512 960c-283.006 0-512-229.014-512-512 0-283.006 229.014-512 512-512 283.006 0 512 229.014 512 512 0 283.006-229.016 512-512 512zM512 16c-238.786 0-432 193.23-432 432 0 238.786 193.23 432 432 432 238.786 0 432-193.23 432-432 0-238.786-193.232-432-432-432zM512 531.34c-22.092 0-40-17.908-40-40v-257.586c0-22.092 17.908-40 40-40s40 17.91 40 40.002v257.584c0 22.092-17.908 40-40 40zM566 634.32c0-29.823-24.177-54-54-54s-54 24.177-54 54c0 29.823 24.177 54 54 54s54-24.177 54-54z" />
<glyph unicode="&#xe90f;" glyph-name="twitter" d="M333.598 63.56c362.283 0 560.4 300.14 560.4 560.4 0 8.524-0.176 17.014-0.558 25.456 38.454 27.804 71.877 62.501 98.248 101.994-35.29-15.693-73.274-26.243-113.107-31.016 40.661 24.393 71.882 62.965 86.606 108.945-38.055-22.562-80.201-38.953-125.066-47.806-35.941 38.284-87.117 62.225-143.777 62.225-108.763 0-196.972-88.203-196.972-196.931 0-15.464 1.732-30.493 5.108-44.912-163.696 8.237-308.859 86.606-405.991 205.784-16.908-29.102-26.665-62.918-26.665-99 0-68.325 34.773-128.659 87.646-163.943-32.313 0.992-62.665 9.863-89.201 24.628-0.029-0.828-0.029-1.632-0.029-2.513 0-95.389 67.89-175.033 158.025-193.080-16.556-4.503-33.974-6.928-51.939-6.928-12.669 0-25.021 1.245-37.021 3.552 25.074-78.258 97.79-135.205 183.998-136.802-67.415-52.837-152.336-84.311-244.632-84.311-15.875 0-31.567 0.91-46.984 2.73 87.17-55.873 190.679-88.479 301.919-88.479z" />
<glyph unicode="&#xe910;" glyph-name="facebook-logo" d="M767.965 959.787l-132.79 0.213c-149.185 0-245.595-98.913-245.595-252.008v-116.192h-133.514c-11.537 0-20.88-9.353-20.88-20.891v-168.35c0-11.537 9.353-20.88 20.88-20.88h133.514v-424.8c0-11.537 9.343-20.88 20.88-20.88h174.198c11.537 0 20.88 9.353 20.88 20.88v424.8h156.109c11.537 0 20.88 9.343 20.88 20.88l0.064 168.35c0 5.54-2.205 10.845-6.115 14.765s-9.236 6.125-14.776 6.125h-156.163v98.498c0 47.342 11.282 71.375 72.952 71.375l89.453 0.032c11.527 0 20.869 9.353 20.869 20.88v156.322c0 11.516-9.332 20.859-20.848 20.88z" />
<glyph unicode="&#xe911;" glyph-name="email" d="M541.62 318.64c-9.672-6.045-20.553-8.463-30.224-8.463s-20.553 2.418-30.224 8.463l-481.171 293.78v-390.498c0-83.419 67.702-151.122 151.122-151.122h721.757c83.419 0 151.122 67.702 151.122 151.122v390.498l-482.38-293.78zM872.878 825.2h-721.757c-71.329 0-131.778-50.777-146.286-118.479l507.769-309.497 506.56 309.497c-14.508 67.702-74.956 118.479-146.286 118.479z" />
<glyph unicode="&#xe912;" glyph-name="pinterest" d="M245.891 403.562c1.281 3.195 14.102 52.461 15 55.797-20.016 30.117-42.25 128.742-25.195 208.797 18.398 117.461 142.875 175.203 260.398 175.203v0.219c147.141-0.094 257.281-81.961 257.398-222.953 0.094-110.359-66.391-256.234-179.914-256.234-0.031 0-0.055 0-0.086 0-40.516 0-91.813 18.375-105.266 36.422-15.523 20.797-19.336 46.461-11.133 73.883 20.102 64.164 45.734 141.023 48.727 192.273 2.773 48.367-31.547 79.836-76.055 79.836-33.492 0-76.992-19.453-98.672-74.117-17.906-45.414-17.523-92.961 1.172-145.344 7.289-20.477-32.313-153.969-45-197.438-31.523-107.984-74.68-244.609-65.453-320.695l8.906-73.211 44.734 58.625c61.906 81.039 125.914 290.664 142.969 341.672 50.422-65.297 155.422-67.172 167.664-67.172 150.367 0 320.875 149.313 316.039 357.125-4.242 182.242-137.617 333.75-377.266 333.75v-0.234c-227.953 0-361-121.672-393.57-275.406-29.828-142.547 36.508-251.039 114.602-280.797z" />
<glyph unicode="&#xe913;" glyph-name="product-1" horiz-adv-x="819" d="M423.12 910.848c-15.122 0.003-28.087-8.214-36.432-20.272-8.348-12.063-12.72-27.922-12.72-45.199v-57.297c-0.155-11.078 16.54-11.078 16.384 0v57.297c0 14.458 3.822 27.237 9.808 35.887s13.514 13.206 22.96 13.201c9.449 0 16.973-4.568 22.96-13.216s9.808-21.413 9.808-35.871v-57.297c-0.155-11.078 16.54-11.078 16.384 0v57.297c0 17.277-4.372 33.139-12.72 45.199-8.345 12.055-21.297 20.265-36.417 20.272zM302.864 824.816c-4.524-0.001-8.191-3.667-8.192-8.192v-206.349c0.001-4.525 3.668-8.192 8.192-8.193h240.592c4.524 0.001 8.191 3.668 8.192 8.193v206.349c-0.001 4.524-3.668 8.191-8.192 8.192h-62.864v-39.136c0.311-22.156-33.082-22.156-32.768 0v39.136h-49.152v-39.136c0.311-22.156-33.082-22.156-32.768 0v39.136zM683.76 566.547v-0.093c-21.623 0-43.238-6.495-60.144-19.664l-81.28-63.327c-1.335 1.183-2.667 2.375-4.096 3.472-15.705 12.063-36.909 19.216-60.208 19.216h-187.088c-0.352 0.093-0.713 0.093-1.072 0.093-1.848-0.002-3.641-0.632-5.088-1.777l-136.897-105.089-2.864 2.192c-1.533 1.173-3.431 1.771-5.36 1.681-1.671-0.093-3.279-0.663-4.608-1.681l-63.055-48.432c-14.783-11.351-22.848-26.961-22.848-42.813 0-15.854 8.065-31.461 22.848-42.814l78.816-60.528c29.563-22.707 74.979-22.707 104.544 0l63.055 48.431c4.268 3.279 4.268 9.713 0 12.992l-4.112 3.168 199.92 0.433c2.811 0 5.444 1.372 6.975 3.728l222.817 173.455c16.858 13.123 26.009 30.882 26.032 48.896 0 18.015-9.102 35.771-26.064 48.799s-38.602 19.605-60.224 19.632zM683.76 549.555c18.302 0 36.625-5.281 50.224-15.712 13.6-10.445 19.679-23.222 19.663-35.792 0-12.571-6.161-25.434-19.712-35.983l-223.168-173.726-216.64-0.468c-0.352-0.005-0.696 0.004-1.040-0.093l-131.759 101.198 131.215 100.735h185.473c19.922 0 37.725-6.224 50.223-15.823s19.6-22.167 19.6-35.904c0-27.732-28.476-52.367-68.24-52.367h-128.896c-11.078 0.155-11.078-16.54 0-16.384h128.896c46.678 0 84.624 30.089 84.624 68.751 0 12.163-4.029 23.518-10.88 33.265l80.336 62.558c13.496 10.513 31.778 15.733 50.080 15.712z" />
<glyph unicode="&#xe914;" glyph-name="product-box" horiz-adv-x="819" d="M23.050 903.958c-12.999-1.341-23.050-12.234-23.050-25.475 0-0.009 0-0.018 0-0.026v0.001-121.5c0-0.029 0-0.063 0-0.098 0-14.14 11.463-25.603 25.603-25.603 0.034 0 0.069 0 0.103 0h286.295v172.7h-286.3c-0.396 0.022-0.859 0.034-1.325 0.034s-0.929-0.012-1.389-0.037l0.064 0.003zM363.2 903.958v-254.3l31.55 22.5c8.882 6.314 20.818 6.314 29.7 0l31.55-22.5v254.3zM507.2 903.958v-172.7h286.5c14.096 0.058 25.5 11.498 25.5 25.602 0 0.034 0 0.069 0 0.103v-0.005 121.5c-0.058 14.060-11.44 25.442-25.495 25.5h-0.006zM46.1 680.058v-457.75c0.058-14.096 11.498-25.5 25.602-25.5 0.034 0 0.069 0 0.103 0h240.195v188.8c0.007 13.366 10.274 24.466 23.6 25.5 5.987 0.445 11.971-1.203 16.85-4.699l57.25-40.65 57.050 40.65c16.922 12.035 40.388-0.026 40.45-20.8v-188.8h240.4c14.060 0.058 25.442 11.44 25.5 25.494v457.756h-265.9v-80.1c-0.051-20.765-23.528-32.835-40.45-20.8l-57.050 40.65-57.25-40.65c-16.922-12.035-40.388 0.026-40.45 20.8v80.1zM363.2 335.908v-139.1h92.8v139.1l-31.55-22.5c-8.881-6.314-20.818-6.314-29.7 0z" />
<glyph unicode="&#xe915;" glyph-name="product-hand" d="M338.579 418.002h359.999c16.586 0 30 13.422 30 30v361.999c0 16.578-13.414 30-30 30h-90v30c0 49.625-40.375 90-90 90s-90-40.375-90-90v-30h-90c-16.578 0-30-13.422-30-30v-361.999c0-16.578 13.422-30 30-30zM488.578 870c0 16.555 13.477 30 30 30s30-13.445 30-30v-30h-60zM955.631 463.533c-5.391 8.961-15.18 14.469-25.664 14.469-52.859 0-101.351-29.336-125.89-76.156l-92.023-175.624c-15.641-29.766-46.172-48.219-79.742-48.219h-203.734c-16.578 0-30 13.422-30 30s13.422 30 30 30h203.726c11.195 0 21.391 6.148 26.609 16.086 5.195 9.922 20.891 39.883 34.383 65.633 4.25 8.109 3.953 17.851-0.789 25.687-4.75 7.828-13.242 12.594-22.398 12.594h-311.843c-40.078 0-77.695-15.617-106.054-43.945l-177.421-177.421c-11.719-11.719-11.719-30.703 0-42.422l149.999-149.421c5.859-5.859 13.539-8.797 21.211-8.797s15.352 2.937 21.211 8.797l113.789 113.21h251.304c78.343 0 149.648 43.125 186.038 112.531l138.164 263.522c4.922 9.289 4.57 20.476-0.875 29.476z" />
</font>
</defs>
</svg>
